<svg width="1440" height="1036" viewBox="0 0 1440 1036" fill="none" xmlns="http://www.w3.org/2000/svg">
<path fill-rule="evenodd" clip-rule="evenodd" d="M156.504 230H88.2092L88.235 230.016L-123 472H-52.9481L-54.1322 471.262L156.504 230Z" fill="#50958B"/>
<path fill-rule="evenodd" clip-rule="evenodd" d="M576.504 230H508.209L508.235 230.016L297 472H367.052L365.868 471.262L576.504 230Z" fill="#50958B"/>
<path fill-rule="evenodd" clip-rule="evenodd" d="M716.504 230H648.209L648.235 230.016L437 472H507.052L505.868 471.262L716.504 230Z" fill="#50958B"/>
<path fill-rule="evenodd" clip-rule="evenodd" d="M856.504 230H788.209L788.235 230.016L577 472H647.052L645.868 471.262L856.504 230Z" fill="#50958B"/>
<path fill-rule="evenodd" clip-rule="evenodd" d="M296.504 230H228.209L228.235 230.016L17 472H87.0519L85.8678 471.262L296.504 230Z" fill="#50958B"/>
<path fill-rule="evenodd" clip-rule="evenodd" d="M436.504 230H368.209L368.235 230.016L157 472H227.052L225.868 471.262L436.504 230Z" fill="#50958B"/>
<path fill-rule="evenodd" clip-rule="evenodd" d="M996.504 230H928.209L928.235 230.016L717 472H787.052L785.868 471.262L996.504 230Z" fill="#50958B"/>
<path fill-rule="evenodd" clip-rule="evenodd" d="M1416.5 230H1348.21L1348.23 230.016L1137 472H1207.05L1205.87 471.262L1416.5 230Z" fill="#50958B"/>
<path fill-rule="evenodd" clip-rule="evenodd" d="M1556.5 230H1488.21L1488.23 230.016L1277 472H1347.05L1345.87 471.262L1556.5 230Z" fill="#50958B"/>
<path fill-rule="evenodd" clip-rule="evenodd" d="M1696.5 230H1628.21L1628.23 230.016L1417 472H1487.05L1485.87 471.262L1696.5 230Z" fill="#50958B"/>
<path fill-rule="evenodd" clip-rule="evenodd" d="M1136.5 230H1068.21L1068.23 230.016L857 472H927.052L925.868 471.262L1136.5 230Z" fill="#50958B"/>
<path fill-rule="evenodd" clip-rule="evenodd" d="M1276.5 230H1208.21L1208.23 230.016L997 472H1067.05L1065.87 471.262L1276.5 230Z" fill="#50958B"/>
<mask id="path-13-outside-1_60_4" maskUnits="userSpaceOnUse" x="-785" y="-5" width="1504" height="202" fill="black">
<rect fill="white" x="-785" y="-5" width="1504" height="202"/>
<path d="M-778.636 189L-747.727 2.81818H-667.364C-653.545 2.81818 -641.909 5.54545 -632.455 11C-623 16.4545 -616.212 24.1212 -612.091 34C-607.97 43.8788 -607 55.4242 -609.182 68.6364C-611.364 82.0909 -616.212 93.697 -623.727 103.455C-631.182 113.152 -640.697 120.636 -652.273 125.909C-663.788 131.121 -676.697 133.727 -691 133.727H-739L-732.455 94.4545H-694.636C-688.576 94.4545 -683.242 93.4242 -678.636 91.3636C-674.03 89.2424 -670.303 86.2727 -667.455 82.4545C-664.606 78.5758 -662.758 73.9697 -661.909 68.6364C-661.061 63.303 -661.455 58.7576 -663.091 55C-664.667 51.1818 -667.394 48.2727 -671.273 46.2727C-675.091 44.2121 -679.97 43.1818 -685.909 43.1818H-703.727L-728.091 189H-778.636ZM-415.364 99.1818C-418.758 119.424 -425.485 136.394 -435.545 150.091C-445.606 163.788 -457.818 174.121 -472.182 181.091C-486.545 188.061 -501.909 191.545 -518.273 191.545C-535.727 191.545 -550.879 187.758 -563.727 180.182C-576.576 172.606 -585.939 161.515 -591.818 146.909C-597.697 132.303 -598.879 114.455 -595.364 93.3636C-592.091 73.1212 -585.424 56.0909 -575.364 42.2727C-565.303 28.4545 -553.03 18 -538.545 10.9091C-524.061 3.81818 -508.576 0.27272 -492.091 0.27272C-474.758 0.27272 -459.697 4.0909 -446.909 11.7273C-434.061 19.3636 -424.727 30.5454 -418.909 45.2727C-413.03 60 -411.848 77.9697 -415.364 99.1818ZM-466.273 93.3636C-464.576 82.697 -464.455 73.7273 -465.909 66.4545C-467.364 59.1212 -470.424 53.6061 -475.091 49.9091C-479.758 46.1515 -486.03 44.2727 -493.909 44.2727C-502.879 44.2727 -510.818 46.4545 -517.727 50.8182C-524.636 55.1818 -530.364 61.4545 -534.909 69.6364C-539.455 77.8182 -542.636 87.6667 -544.455 99.1818C-546.394 109.97 -546.576 118.939 -545 126.091C-543.364 133.242 -540.152 138.606 -535.364 142.182C-530.515 145.758 -524.212 147.545 -516.455 147.545C-507.606 147.545 -499.788 145.424 -493 141.182C-486.152 136.939 -480.485 130.788 -476 122.727C-471.455 114.667 -468.212 104.879 -466.273 93.3636ZM-406.886 189L-375.977 2.81818H-295.614C-281.795 2.81818 -270.129 5.33333 -260.614 10.3636C-251.098 15.3939 -244.25 22.6364 -240.068 32.0909C-235.886 41.5455 -234.886 52.8788 -237.068 66.0909C-239.25 79.4242 -244.068 90.6667 -251.523 99.8182C-258.917 108.909 -268.341 115.818 -279.795 120.545C-291.189 125.212 -303.977 127.545 -318.159 127.545H-366.159L-359.614 88.2727H-321.795C-315.856 88.2727 -310.644 87.5455 -306.159 86.0909C-301.674 84.5758 -298.038 82.2121 -295.25 79C-292.462 75.7273 -290.644 71.4242 -289.795 66.0909C-288.947 60.7576 -289.371 56.4242 -291.068 53.0909C-292.765 49.697 -295.583 47.2121 -299.523 45.6364C-303.462 44 -308.341 43.1818 -314.159 43.1818H-331.977L-356.341 189H-406.886ZM-283.614 103.545L-251.25 189H-306.159L-337.432 103.545H-283.614ZM-214.477 43.5455L-207.568 2.81818H-45.75L-52.6591 43.5455H-108.659L-132.659 189H-182.477L-158.477 43.5455H-214.477ZM-57.6364 189L-26.7273 2.81818H104.182L97.2727 43.5455H16.9091L11.8182 75.5454H84.1818L77.2727 116.273H4.90909L-7.09091 189H-57.6364ZM287.136 99.1818C283.742 119.424 277.015 136.394 266.955 150.091C256.894 163.788 244.682 174.121 230.318 181.091C215.955 188.061 200.591 191.545 184.227 191.545C166.773 191.545 151.621 187.758 138.773 180.182C125.924 172.606 116.561 161.515 110.682 146.909C104.803 132.303 103.621 114.455 107.136 93.3636C110.409 73.1212 117.076 56.0909 127.136 42.2727C137.197 28.4545 149.47 18 163.955 10.9091C178.439 3.81818 193.924 0.27272 210.409 0.27272C227.742 0.27272 242.803 4.0909 255.591 11.7273C268.439 19.3636 277.773 30.5454 283.591 45.2727C289.47 60 290.652 77.9697 287.136 99.1818ZM236.227 93.3636C237.924 82.697 238.045 73.7273 236.591 66.4545C235.136 59.1212 232.076 53.6061 227.409 49.9091C222.742 46.1515 216.47 44.2727 208.591 44.2727C199.621 44.2727 191.682 46.4545 184.773 50.8182C177.864 55.1818 172.136 61.4545 167.591 69.6364C163.045 77.8182 159.864 87.6667 158.045 99.1818C156.106 109.97 155.924 118.939 157.5 126.091C159.136 133.242 162.348 138.606 167.136 142.182C171.985 145.758 178.288 147.545 186.045 147.545C194.894 147.545 202.712 145.424 209.5 141.182C216.348 136.939 222.015 130.788 226.5 122.727C231.045 114.667 234.288 104.879 236.227 93.3636ZM295.614 189L326.523 2.81818H377.068L353.068 148.273H428.341L421.432 189H295.614ZM523.318 2.81818L492.409 189H441.864L472.773 2.81818H523.318ZM711.636 99.1818C708.242 119.424 701.515 136.394 691.455 150.091C681.394 163.788 669.182 174.121 654.818 181.091C640.455 188.061 625.091 191.545 608.727 191.545C591.273 191.545 576.121 187.758 563.273 180.182C550.424 172.606 541.061 161.515 535.182 146.909C529.303 132.303 528.121 114.455 531.636 93.3636C534.909 73.1212 541.576 56.0909 551.636 42.2727C561.697 28.4545 573.97 18 588.455 10.9091C602.939 3.81818 618.424 0.27272 634.909 0.27272C652.242 0.27272 667.303 4.0909 680.091 11.7273C692.939 19.3636 702.273 30.5454 708.091 45.2727C713.97 60 715.152 77.9697 711.636 99.1818ZM660.727 93.3636C662.424 82.697 662.545 73.7273 661.091 66.4545C659.636 59.1212 656.576 53.6061 651.909 49.9091C647.242 46.1515 640.97 44.2727 633.091 44.2727C624.121 44.2727 616.182 46.4545 609.273 50.8182C602.364 55.1818 596.636 61.4545 592.091 69.6364C587.545 77.8182 584.364 87.6667 582.545 99.1818C580.606 109.97 580.424 118.939 582 126.091C583.636 133.242 586.848 138.606 591.636 142.182C596.485 145.758 602.788 147.545 610.545 147.545C619.394 147.545 627.212 145.424 634 141.182C640.848 136.939 646.515 130.788 651 122.727C655.545 114.667 658.788 104.879 660.727 93.3636Z"/>
</mask>
<path d="M-778.636 189L-783.569 188.181L-784.535 194H-778.636V189ZM-747.727 2.81818V-2.18182H-751.966L-752.66 1.99931L-747.727 2.81818ZM-632.455 11L-634.953 15.3309V15.3309L-632.455 11ZM-612.091 34L-607.476 32.0749V32.0749L-612.091 34ZM-609.182 68.6364L-614.115 67.8217L-614.116 67.8289L-614.117 67.836L-609.182 68.6364ZM-623.727 103.455L-627.689 100.404L-627.691 100.407L-623.727 103.455ZM-652.273 125.909L-650.211 130.464L-650.2 130.459L-652.273 125.909ZM-739 133.727L-743.932 132.905L-744.902 138.727H-739V133.727ZM-732.455 94.4545V89.4545H-736.69L-737.387 93.6325L-732.455 94.4545ZM-678.636 91.3636L-676.595 95.9277L-676.57 95.9166L-676.545 95.9052L-678.636 91.3636ZM-667.455 82.4545L-663.447 85.4444L-663.436 85.4293L-663.425 85.4141L-667.455 82.4545ZM-661.909 68.6364L-656.971 69.4219L-661.909 68.6364ZM-663.091 55L-667.713 56.9074L-667.694 56.9521L-667.675 56.9963L-663.091 55ZM-671.273 46.2727L-673.647 50.6728L-673.606 50.6952L-673.564 50.7167L-671.273 46.2727ZM-703.727 43.1818V38.1818H-707.961L-708.659 42.3578L-703.727 43.1818ZM-728.091 189V194H-723.857L-723.159 189.824L-728.091 189ZM-773.704 189.819L-742.795 3.63705L-752.66 1.99931L-783.569 188.181L-773.704 189.819ZM-747.727 7.81818H-667.364V-2.18182H-747.727V7.81818ZM-667.364 7.81818C-654.193 7.81818 -643.471 10.4167 -634.953 15.3309L-629.956 6.66908C-640.347 0.67421 -652.898 -2.18182 -667.364 -2.18182V7.81818ZM-634.953 15.3309C-626.428 20.249 -620.395 27.08 -616.705 35.9251L-607.476 32.0749C-612.029 21.1624 -619.572 12.6601 -629.956 6.66907L-634.953 15.3309ZM-616.705 35.9251C-613.026 44.7452 -612.048 55.3036 -614.115 67.8217L-604.249 69.451C-601.952 55.5449 -602.914 43.0123 -607.476 32.0749L-616.705 35.9251ZM-614.117 67.836C-616.181 80.5603 -620.732 91.3717 -627.689 100.404L-619.766 106.505C-611.692 96.0222 -606.547 83.6215 -604.246 69.4367L-614.117 67.836ZM-627.691 100.407C-634.627 109.43 -643.483 116.411 -654.345 121.359L-650.2 130.459C-637.911 124.862 -627.736 116.873 -619.763 106.502L-627.691 100.407ZM-654.335 121.354C-665.122 126.237 -677.314 128.727 -691 128.727V138.727C-676.08 138.727 -662.454 136.006 -650.211 130.464L-654.335 121.354ZM-691 128.727H-739V138.727H-691V128.727ZM-734.068 134.549L-727.523 95.2765L-737.387 93.6325L-743.932 132.905L-734.068 134.549ZM-732.455 99.4545H-694.636V89.4545H-732.455V99.4545ZM-694.636 99.4545C-688.011 99.4545 -681.959 98.3275 -676.595 95.9277L-680.678 86.7995C-684.526 88.521 -689.14 89.4545 -694.636 89.4545V99.4545ZM-676.545 95.9052C-671.231 93.458 -666.827 89.9748 -663.447 85.4444L-671.462 79.4647C-673.779 82.5707 -676.83 85.0268 -680.728 86.8221L-676.545 95.9052ZM-663.425 85.4141C-660.05 80.8184 -657.929 75.4446 -656.971 69.4219L-666.847 67.8508C-667.586 72.4948 -669.163 76.3332 -671.485 79.495L-663.425 85.4141ZM-656.971 69.4219C-656.019 63.4398 -656.386 57.8731 -658.507 53.0037L-667.675 56.9963C-666.523 59.642 -666.102 63.1663 -666.847 67.8508L-656.971 69.4219ZM-658.469 53.0926C-660.524 48.1142 -664.114 44.3382 -668.981 41.8287L-673.564 50.7167C-670.674 52.2072 -668.81 54.2494 -667.713 56.9074L-658.469 53.0926ZM-668.898 41.8726C-673.665 39.2999 -679.432 38.1818 -685.909 38.1818V48.1818C-680.507 48.1818 -676.517 49.1244 -673.647 50.6728L-668.898 41.8726ZM-685.909 38.1818H-703.727V48.1818H-685.909V38.1818ZM-708.659 42.3578L-733.023 188.176L-723.159 189.824L-698.796 44.0058L-708.659 42.3578ZM-728.091 184H-778.636V194H-728.091V184ZM-415.364 99.1818L-410.432 100.009L-410.431 99.9992L-415.364 99.1818ZM-435.545 150.091L-439.575 147.131V147.131L-435.545 150.091ZM-472.182 181.091L-469.999 185.589L-472.182 181.091ZM-563.727 180.182L-561.188 175.875L-563.727 180.182ZM-591.818 146.909L-587.18 145.042L-591.818 146.909ZM-595.364 93.3636L-590.432 94.1856L-590.43 94.1736L-590.428 94.1617L-595.364 93.3636ZM-575.364 42.2727L-579.406 39.3298L-575.364 42.2727ZM-538.545 10.9091L-540.744 6.41832L-538.545 10.9091ZM-446.909 11.7273L-449.473 16.0201L-449.464 16.0254L-446.909 11.7273ZM-418.909 45.2727L-423.559 47.1099L-423.556 47.1181L-423.553 47.1264L-418.909 45.2727ZM-466.273 93.3636L-461.342 94.194L-461.338 94.1716L-461.335 94.1492L-466.273 93.3636ZM-465.909 66.4545L-470.814 67.4273L-470.812 67.4351L-465.909 66.4545ZM-475.091 49.9091L-478.227 53.8035L-478.211 53.816L-478.196 53.8283L-475.091 49.9091ZM-517.727 50.8182L-520.397 46.5907L-517.727 50.8182ZM-544.455 99.1818L-539.533 100.067L-539.524 100.014L-539.516 99.9616L-544.455 99.1818ZM-545 126.091L-549.883 127.167L-549.879 127.186L-549.874 127.206L-545 126.091ZM-535.364 142.182L-538.356 146.188L-538.343 146.197L-538.331 146.206L-535.364 142.182ZM-493 141.182L-495.633 136.931L-495.642 136.937L-495.65 136.942L-493 141.182ZM-476 122.727L-480.355 120.271L-480.362 120.284L-480.369 120.296L-476 122.727ZM-420.295 98.355C-423.586 117.984 -430.064 134.183 -439.575 147.131L-431.516 153.051C-420.905 138.605 -413.929 120.864 -410.432 100.009L-420.295 98.355ZM-439.575 147.131C-449.186 160.216 -460.78 170.001 -474.365 176.593L-469.999 185.589C-454.857 178.242 -442.026 167.36 -431.516 153.051L-439.575 147.131ZM-474.365 176.593C-488.031 183.224 -502.646 186.545 -518.273 186.545V196.545C-501.172 196.545 -485.06 192.898 -469.999 185.589L-474.365 176.593ZM-518.273 186.545C-534.988 186.545 -549.231 182.925 -561.188 175.875L-566.267 184.489C-552.527 192.59 -536.467 196.545 -518.273 196.545V186.545ZM-561.188 175.875C-573.032 168.891 -581.688 158.687 -587.18 145.042L-596.457 148.776C-590.191 164.344 -580.12 176.321 -566.267 184.489L-561.188 175.875ZM-587.18 145.042C-592.614 131.541 -593.848 114.684 -590.432 94.1856L-600.296 92.5416C-603.91 114.226 -602.78 133.065 -596.457 148.776L-587.18 145.042ZM-590.428 94.1617C-587.256 74.5411 -580.836 58.2843 -571.321 45.2157L-579.406 39.3298C-590.012 53.8975 -596.926 71.7013 -600.3 92.5656L-590.428 94.1617ZM-571.321 45.2157C-561.711 32.0153 -550.057 22.1112 -536.347 15.3999L-540.744 6.41832C-556.004 13.8888 -568.895 24.8938 -579.406 39.3298L-571.321 45.2157ZM-536.347 15.3999C-522.562 8.6516 -507.831 5.27272 -492.091 5.27272V-4.72728C-509.32 -4.72728 -525.559 -1.01524 -540.744 6.41832L-536.347 15.3999ZM-492.091 5.27272C-475.51 5.27272 -461.366 8.91774 -449.473 16.0201L-444.346 7.43443C-458.028 -0.735939 -474.005 -4.72728 -492.091 -4.72728V5.27272ZM-449.464 16.0254C-437.626 23.0611 -428.997 33.3468 -423.559 47.1099L-414.259 43.4356C-420.458 27.7441 -430.495 15.6661 -444.355 7.4291L-449.464 16.0254ZM-423.553 47.1264C-418.112 60.7561 -416.879 77.7431 -420.296 98.3644L-410.431 99.9992C-406.818 78.1962 -407.948 59.2438 -414.265 43.4191L-423.553 47.1264ZM-461.335 94.1492C-459.583 83.14 -459.395 73.5294 -461.006 65.474L-470.812 67.4351C-469.514 73.9251 -469.568 82.2539 -471.211 92.5781L-461.335 94.1492ZM-461.005 65.4818C-462.629 57.2906 -466.17 50.5976 -471.986 45.9899L-478.196 53.8283C-474.679 56.6146 -472.098 60.9519 -470.814 67.4273L-461.005 65.4818ZM-471.955 46.0146C-477.756 41.3436 -485.251 39.2727 -493.909 39.2727V49.2727C-486.809 49.2727 -481.759 50.9594 -478.227 53.8035L-471.955 46.0146ZM-493.909 39.2727C-503.728 39.2727 -512.612 41.6737 -520.397 46.5907L-515.057 55.0456C-509.025 51.2354 -502.029 49.2727 -493.909 49.2727V39.2727ZM-520.397 46.5907C-528.112 51.4635 -534.387 58.4011 -539.28 67.2081L-530.538 72.0646C-526.34 64.5079 -521.16 58.9001 -515.057 55.0456L-520.397 46.5907ZM-539.28 67.2081C-544.17 76.0102 -547.505 86.4449 -549.393 98.402L-539.516 99.9616C-537.767 88.8884 -534.739 79.6261 -530.538 72.0646L-539.28 67.2081ZM-549.376 98.2971C-551.379 109.442 -551.653 119.133 -549.883 127.167L-540.117 125.015C-541.498 118.746 -541.409 110.497 -539.533 100.067L-549.376 98.2971ZM-549.874 127.206C-548.036 135.241 -544.297 141.751 -538.356 146.188L-532.372 138.176C-536.007 135.461 -538.692 131.244 -540.126 124.976L-549.874 127.206ZM-538.331 146.206C-532.405 150.577 -524.972 152.545 -516.455 152.545V142.545C-523.452 142.545 -528.626 140.938 -532.396 138.158L-538.331 146.206ZM-516.455 152.545C-506.771 152.545 -498.015 150.212 -490.35 145.422L-495.65 136.942C-501.561 140.636 -508.441 142.545 -516.455 142.545V152.545ZM-490.367 145.432C-482.695 140.68 -476.469 133.854 -471.631 125.158L-480.369 120.296C-484.501 127.722 -489.608 133.199 -495.633 136.931L-490.367 145.432ZM-471.645 125.183C-466.751 116.506 -463.354 106.137 -461.342 94.194L-471.203 92.5332C-473.071 103.62 -476.158 112.828 -480.355 120.271L-471.645 125.183ZM-406.886 189L-411.819 188.181L-412.785 194H-406.886V189ZM-375.977 2.81818V-2.18182H-380.216L-380.91 1.99931L-375.977 2.81818ZM-240.068 32.0909L-235.495 30.0684V30.0684L-240.068 32.0909ZM-237.068 66.0909L-242.001 65.2763L-242.003 65.2835L-237.068 66.0909ZM-251.523 99.8182L-255.399 96.6604L-255.402 96.6633L-251.523 99.8182ZM-279.795 120.545L-277.9 125.172L-277.888 125.167L-279.795 120.545ZM-366.159 127.545L-371.091 126.723L-372.061 132.545H-366.159V127.545ZM-359.614 88.2727V83.2727H-363.849L-364.546 87.4507L-359.614 88.2727ZM-306.159 86.0909L-304.617 90.847L-304.588 90.8376L-304.559 90.8279L-306.159 86.0909ZM-295.25 79L-291.474 82.2774L-291.459 82.2599L-291.444 82.2423L-295.25 79ZM-289.795 66.0909L-294.733 65.3053L-289.795 66.0909ZM-291.068 53.0909L-295.54 55.327L-295.532 55.3432L-295.524 55.3593L-291.068 53.0909ZM-299.523 45.6364L-301.441 50.2538L-301.41 50.2665L-301.38 50.2787L-299.523 45.6364ZM-331.977 43.1818V38.1818H-336.211L-336.909 42.3578L-331.977 43.1818ZM-356.341 189V194H-352.107L-351.409 189.824L-356.341 189ZM-283.614 103.545L-278.938 101.775L-280.161 98.5454H-283.614V103.545ZM-251.25 189V194H-244.01L-246.574 187.229L-251.25 189ZM-306.159 189L-310.855 190.718L-309.654 194H-306.159V189ZM-337.432 103.545V98.5454H-344.586L-342.127 105.264L-337.432 103.545ZM-401.954 189.819L-371.045 3.63705L-380.91 1.99931L-411.819 188.181L-401.954 189.819ZM-375.977 7.81818H-295.614V-2.18182H-375.977V7.81818ZM-295.614 7.81818C-282.385 7.81818 -271.57 10.2271 -262.951 14.7839L-258.277 5.94332C-268.688 0.439545 -281.206 -2.18182 -295.614 -2.18182V7.81818ZM-262.951 14.7839C-254.385 19.3123 -248.348 25.7314 -244.641 34.1134L-235.495 30.0684C-240.152 19.5414 -247.812 11.4756 -258.277 5.94332L-262.951 14.7839ZM-244.641 34.1134C-240.954 42.4491 -239.932 52.7444 -242.001 65.2763L-232.135 66.9056C-229.841 53.0131 -230.819 40.6418 -235.495 30.0684L-244.641 34.1134ZM-242.003 65.2835C-244.064 77.881 -248.572 88.2794 -255.399 96.6604L-247.646 102.976C-239.564 93.0539 -234.436 80.9675 -232.134 66.8983L-242.003 65.2835ZM-255.402 96.6633C-262.24 105.072 -270.972 111.495 -281.703 115.924L-277.888 125.167C-265.71 120.142 -255.593 112.747 -247.644 102.973L-255.402 96.6633ZM-281.691 115.919C-292.399 120.304 -304.53 122.545 -318.159 122.545V132.545C-303.425 132.545 -289.98 130.12 -277.9 125.172L-281.691 115.919ZM-318.159 122.545H-366.159V132.545H-318.159V122.545ZM-361.227 128.367L-354.682 89.0947L-364.546 87.4507L-371.091 126.723L-361.227 128.367ZM-359.614 93.2727H-321.795V83.2727H-359.614V93.2727ZM-321.795 93.2727C-315.462 93.2727 -309.71 92.4988 -304.617 90.847L-307.702 81.3348C-311.578 82.5921 -316.25 83.2727 -321.795 83.2727V93.2727ZM-304.559 90.8279C-299.329 89.0612 -294.908 86.2345 -291.474 82.2774L-299.026 75.7226C-301.167 78.1898 -304.019 80.0903 -307.759 81.3539L-304.559 90.8279ZM-291.444 82.2423C-287.925 78.1117 -285.814 72.8867 -284.858 66.8765L-294.733 65.3053C-295.474 69.9617 -296.999 73.3429 -299.056 75.7577L-291.444 82.2423ZM-284.858 66.8765C-283.914 60.9448 -284.266 55.4321 -286.612 50.8225L-295.524 55.3593C-294.477 57.4164 -293.98 60.5703 -294.733 65.3053L-284.858 66.8765ZM-286.596 50.8548C-288.906 46.2341 -292.734 42.9668 -297.666 40.994L-301.38 50.2787C-298.433 51.4574 -296.624 53.1598 -295.54 55.327L-286.596 50.8548ZM-297.605 41.0189C-302.33 39.0561 -307.907 38.1818 -314.159 38.1818V48.1818C-308.775 48.1818 -304.594 48.9439 -301.441 50.2538L-297.605 41.0189ZM-314.159 38.1818H-331.977V48.1818H-314.159V38.1818ZM-336.909 42.3578L-361.273 188.176L-351.409 189.824L-327.046 44.0058L-336.909 42.3578ZM-356.341 184H-406.886V194H-356.341V184ZM-288.29 105.316L-255.926 190.771L-246.574 187.229L-278.938 101.775L-288.29 105.316ZM-251.25 184H-306.159V194H-251.25V184ZM-301.464 187.282L-332.736 101.827L-342.127 105.264L-310.855 190.718L-301.464 187.282ZM-337.432 108.545H-283.614V98.5454H-337.432V108.545ZM-214.477 43.5455L-219.407 42.7092L-220.397 48.5455H-214.477V43.5455ZM-207.568 2.81818V-2.18182H-211.791L-212.498 1.98191L-207.568 2.81818ZM-45.75 2.81818L-40.8204 3.65444L-39.8303 -2.18182H-45.75V2.81818ZM-52.6591 43.5455V48.5455H-48.4359L-47.7295 44.3817L-52.6591 43.5455ZM-108.659 43.5455V38.5455H-112.902L-113.592 42.7315L-108.659 43.5455ZM-132.659 189V194H-128.417L-127.726 189.814L-132.659 189ZM-182.477 189L-187.411 188.186L-188.37 194H-182.477V189ZM-158.477 43.5455L-153.544 44.3595L-152.585 38.5455H-158.477V43.5455ZM-209.548 44.3817L-202.639 3.65444L-212.498 1.98191L-219.407 42.7092L-209.548 44.3817ZM-207.568 7.81818H-45.75V-2.18182H-207.568V7.81818ZM-50.6796 1.98191L-57.5887 42.7092L-47.7295 44.3817L-40.8204 3.65444L-50.6796 1.98191ZM-52.6591 38.5455H-108.659V48.5455H-52.6591V38.5455ZM-113.592 42.7315L-137.592 188.186L-127.726 189.814L-103.726 44.3595L-113.592 42.7315ZM-132.659 184H-182.477V194H-132.659V184ZM-177.544 189.814L-153.544 44.3595L-163.411 42.7315L-187.411 188.186L-177.544 189.814ZM-158.477 38.5455H-214.477V48.5455H-158.477V38.5455ZM-57.6364 189L-62.5688 188.181L-63.5349 194H-57.6364V189ZM-26.7273 2.81818V-2.18182H-30.9656L-31.6598 1.99931L-26.7273 2.81818ZM104.182 2.81818L109.111 3.65444L110.102 -2.18182H104.182V2.81818ZM97.2727 43.5455V48.5455H101.496L102.202 44.3817L97.2727 43.5455ZM16.9091 43.5455V38.5455H12.6417L11.9712 42.7599L16.9091 43.5455ZM11.8182 75.5454L6.88031 74.7599L5.95984 80.5454H11.8182V75.5454ZM84.1818 75.5454L89.1114 76.3817L90.1015 70.5454H84.1818V75.5454ZM77.2727 116.273V121.273H81.496L82.2023 117.109L77.2727 116.273ZM4.90912 116.273V111.273H0.666504L-0.024231 115.459L4.90912 116.273ZM-7.09088 189V194H-2.84833L-2.15759 189.814L-7.09088 189ZM-52.7039 189.819L-21.7948 3.63705L-31.6598 1.99931L-62.5688 188.181L-52.7039 189.819ZM-26.7273 7.81818H104.182V-2.18182H-26.7273V7.81818ZM99.2523 1.98191L92.3431 42.7092L102.202 44.3817L109.111 3.65444L99.2523 1.98191ZM97.2727 38.5455H16.9091V48.5455H97.2727V38.5455ZM11.9712 42.7599L6.88031 74.7599L16.7561 76.331L21.847 44.331L11.9712 42.7599ZM11.8182 80.5454H84.1818V70.5454H11.8182V80.5454ZM79.2523 74.7092L72.3431 115.436L82.2023 117.109L89.1114 76.3817L79.2523 74.7092ZM77.2727 111.273H4.90912V121.273H77.2727V111.273ZM-0.024231 115.459L-12.0242 188.186L-2.15759 189.814L9.84241 117.087L-0.024231 115.459ZM-7.09088 184H-57.6364V194H-7.09088V184ZM287.136 99.1818L292.068 100.009L292.069 99.9992L287.136 99.1818ZM266.955 150.091L262.925 147.131V147.131L266.955 150.091ZM230.318 181.091L232.501 185.589L230.318 181.091ZM138.773 180.182L141.312 175.875L138.773 180.182ZM110.682 146.909L115.32 145.042L110.682 146.909ZM107.136 93.3636L112.068 94.1856L112.07 94.1736L112.072 94.1617L107.136 93.3636ZM127.136 42.2727L123.094 39.3298L127.136 42.2727ZM163.955 10.9091L161.756 6.41832H161.756L163.955 10.9091ZM255.591 11.7273L253.027 16.0201L253.036 16.0254L255.591 11.7273ZM283.591 45.2727L278.941 47.1099L278.944 47.1181L278.947 47.1264L283.591 45.2727ZM236.227 93.3636L241.158 94.194L241.162 94.1716L241.165 94.1492L236.227 93.3636ZM236.591 66.4545L231.686 67.4273L231.688 67.4351L236.591 66.4545ZM227.409 49.9091L224.273 53.8035L224.289 53.816L224.304 53.8283L227.409 49.9091ZM184.773 50.8182L182.103 46.5907L184.773 50.8182ZM158.045 99.1818L162.967 100.067L162.976 100.014L162.984 99.9616L158.045 99.1818ZM157.5 126.091L152.617 127.167L152.621 127.186L152.626 127.206L157.5 126.091ZM167.136 142.182L164.144 146.188L164.157 146.197L164.169 146.206L167.136 142.182ZM209.5 141.182L206.867 136.931L206.858 136.937L206.85 136.942L209.5 141.182ZM226.5 122.727L222.145 120.271L222.138 120.284L222.131 120.296L226.5 122.727ZM282.205 98.355C278.914 117.984 272.436 134.183 262.925 147.131L270.984 153.051C281.595 138.605 288.571 120.864 292.068 100.009L282.205 98.355ZM262.925 147.131C253.314 160.216 241.72 170.001 228.135 176.593L232.501 185.589C247.643 178.242 260.474 167.36 270.984 153.051L262.925 147.131ZM228.135 176.593C214.469 183.224 199.854 186.545 184.227 186.545V196.545C201.328 196.545 217.44 192.898 232.501 185.589L228.135 176.593ZM184.227 186.545C167.512 186.545 153.269 182.925 141.312 175.875L136.233 184.489C149.973 192.59 166.033 196.545 184.227 196.545V186.545ZM141.312 175.875C129.468 168.891 120.812 158.687 115.32 145.042L106.043 148.776C112.309 164.344 122.38 176.321 136.233 184.489L141.312 175.875ZM115.32 145.042C109.886 131.541 108.652 114.684 112.068 94.1856L102.204 92.5416C98.5904 114.226 99.7198 133.065 106.043 148.776L115.32 145.042ZM112.072 94.1617C115.244 74.5411 121.664 58.2843 131.179 45.2157L123.094 39.3298C112.488 53.8975 105.574 71.7013 102.2 92.5656L112.072 94.1617ZM131.179 45.2157C140.789 32.0153 152.443 22.1112 166.153 15.3999L161.756 6.41832C146.496 13.8888 133.605 24.8938 123.094 39.3298L131.179 45.2157ZM166.153 15.3999C179.938 8.6516 194.669 5.27272 210.409 5.27272V-4.72728C193.18 -4.72728 176.941 -1.01524 161.756 6.41832L166.153 15.3999ZM210.409 5.27272C226.99 5.27272 241.134 8.91774 253.027 16.0201L258.154 7.43443C244.472 -0.735939 228.495 -4.72728 210.409 -4.72728V5.27272ZM253.036 16.0254C264.874 23.0611 273.503 33.3468 278.941 47.1099L288.241 43.4356C282.042 27.7441 272.005 15.6661 258.146 7.4291L253.036 16.0254ZM278.947 47.1264C284.388 60.7561 285.621 77.7431 282.204 98.3644L292.069 99.9992C295.682 78.1962 294.552 59.2438 288.235 43.4191L278.947 47.1264ZM241.165 94.1492C242.917 83.14 243.105 73.5294 241.494 65.474L231.688 67.4351C232.986 73.9251 232.932 82.2539 231.289 92.5781L241.165 94.1492ZM241.495 65.4818C239.871 57.2906 236.33 50.5976 230.514 45.9899L224.304 53.8283C227.821 56.6146 230.402 60.9519 231.686 67.4273L241.495 65.4818ZM230.545 46.0146C224.744 41.3436 217.249 39.2727 208.591 39.2727V49.2727C215.691 49.2727 220.741 50.9594 224.273 53.8035L230.545 46.0146ZM208.591 39.2727C198.772 39.2727 189.888 41.6737 182.103 46.5907L187.443 55.0456C193.476 51.2354 200.471 49.2727 208.591 49.2727V39.2727ZM182.103 46.5907C174.388 51.4635 168.113 58.4011 163.22 67.2081L171.962 72.0646C176.16 64.5079 181.34 58.9001 187.443 55.0456L182.103 46.5907ZM163.22 67.2081C158.33 76.0102 154.995 86.4449 153.107 98.402L162.984 99.9616C164.733 88.8884 167.761 79.6261 171.962 72.0646L163.22 67.2081ZM153.124 98.2971C151.121 109.442 150.847 119.133 152.617 127.167L162.383 125.015C161.002 118.746 161.091 110.497 162.967 100.067L153.124 98.2971ZM152.626 127.206C154.464 135.241 158.203 141.751 164.144 146.188L170.128 138.176C166.494 135.461 163.808 131.244 162.374 124.976L152.626 127.206ZM164.169 146.206C170.095 150.577 177.528 152.545 186.045 152.545V142.545C179.048 142.545 173.874 140.938 170.104 138.158L164.169 146.206ZM186.045 152.545C195.729 152.545 204.485 150.212 212.15 145.422L206.85 136.942C200.939 140.636 194.059 142.545 186.045 142.545V152.545ZM212.133 145.432C219.805 140.68 226.031 133.854 230.869 125.158L222.131 120.296C217.999 127.722 212.892 133.199 206.867 136.931L212.133 145.432ZM230.855 125.183C235.749 116.506 239.146 106.137 241.158 94.194L231.297 92.5332C229.429 103.62 226.342 112.828 222.145 120.271L230.855 125.183ZM295.614 189L290.681 188.181L289.715 194H295.614V189ZM326.523 2.81818V-2.18182H322.284L321.59 1.99931L326.523 2.81818ZM377.068 2.81818L382.001 3.63217L382.961 -2.18182H377.068V2.81818ZM353.068 148.273L348.135 147.459L347.176 153.273H353.068V148.273ZM428.341 148.273L433.271 149.109L434.261 143.273H428.341V148.273ZM421.432 189V194H425.655L426.361 189.836L421.432 189ZM300.546 189.819L331.455 3.63705L321.59 1.99931L290.681 188.181L300.546 189.819ZM326.523 7.81818H377.068V-2.18182H326.523V7.81818ZM372.135 2.00418L348.135 147.459L358.001 149.087L382.001 3.63217L372.135 2.00418ZM353.068 153.273H428.341V143.273H353.068V153.273ZM423.411 147.436L416.502 188.164L426.361 189.836L433.271 149.109L423.411 147.436ZM421.432 184H295.614V194H421.432V184ZM523.318 2.81818L528.251 3.63705L529.217 -2.18182H523.318V2.81818ZM492.409 189V194H496.647L497.342 189.819L492.409 189ZM441.864 189L436.931 188.181L435.965 194H441.864V189ZM472.773 2.81818V-2.18182H468.534L467.84 1.99931L472.773 2.81818ZM518.386 1.99931L487.477 188.181L497.342 189.819L528.251 3.63705L518.386 1.99931ZM492.409 184H441.864V194H492.409V184ZM446.796 189.819L477.705 3.63705L467.84 1.99931L436.931 188.181L446.796 189.819ZM472.773 7.81818H523.318V-2.18182H472.773V7.81818ZM711.636 99.1818L716.568 100.009L716.569 99.9992L711.636 99.1818ZM691.455 150.091L687.425 147.131V147.131L691.455 150.091ZM654.818 181.091L657.001 185.589L654.818 181.091ZM563.273 180.182L565.812 175.875L563.273 180.182ZM535.182 146.909L539.82 145.042L535.182 146.909ZM531.636 93.3636L536.568 94.1856L536.57 94.1736L536.572 94.1617L531.636 93.3636ZM551.636 42.2727L547.594 39.3298L551.636 42.2727ZM588.455 10.9091L586.256 6.41832L588.455 10.9091ZM680.091 11.7273L677.527 16.0201L677.536 16.0254L680.091 11.7273ZM708.091 45.2727L703.441 47.1099L703.444 47.1181L703.447 47.1264L708.091 45.2727ZM660.727 93.3636L665.658 94.194L665.662 94.1716L665.665 94.1492L660.727 93.3636ZM661.091 66.4545L656.186 67.4273L656.188 67.4351L661.091 66.4545ZM651.909 49.9091L648.773 53.8035L648.789 53.816L648.804 53.8283L651.909 49.9091ZM609.273 50.8182L606.603 46.5907L609.273 50.8182ZM582.545 99.1818L587.467 100.067L587.476 100.014L587.484 99.9616L582.545 99.1818ZM582 126.091L577.117 127.167L577.121 127.186L577.126 127.206L582 126.091ZM591.636 142.182L588.645 146.188L588.656 146.197L588.669 146.206L591.636 142.182ZM634 141.182L631.367 136.931L631.358 136.937L631.35 136.942L634 141.182ZM651 122.727L646.645 120.271L646.638 120.284L646.631 120.296L651 122.727ZM706.705 98.355C703.414 117.984 696.936 134.183 687.425 147.131L695.484 153.051C706.095 138.605 713.071 120.864 716.568 100.009L706.705 98.355ZM687.425 147.131C677.814 160.216 666.22 170.001 652.635 176.593L657.001 185.589C672.143 178.242 684.974 167.36 695.484 153.051L687.425 147.131ZM652.635 176.593C638.969 183.224 624.354 186.545 608.727 186.545V196.545C625.828 196.545 641.94 192.898 657.001 185.589L652.635 176.593ZM608.727 186.545C592.012 186.545 577.769 182.925 565.812 175.875L560.733 184.489C574.474 192.59 590.533 196.545 608.727 196.545V186.545ZM565.812 175.875C553.968 168.891 545.312 158.687 539.82 145.042L530.543 148.776C536.809 164.344 546.88 176.321 560.733 184.489L565.812 175.875ZM539.82 145.042C534.386 131.541 533.152 114.684 536.568 94.1856L526.704 92.5416C523.09 114.226 524.22 133.065 530.543 148.776L539.82 145.042ZM536.572 94.1617C539.745 74.5411 546.164 58.2843 555.678 45.2157L547.594 39.3298C536.988 53.8975 530.074 71.7013 526.7 92.5656L536.572 94.1617ZM555.678 45.2157C565.289 32.0153 576.943 22.1112 590.653 15.3999L586.256 6.41832C570.996 13.8888 558.105 24.8938 547.594 39.3298L555.678 45.2157ZM590.653 15.3999C604.438 8.6516 619.169 5.27272 634.909 5.27272V-4.72728C617.68 -4.72728 601.441 -1.01524 586.256 6.41832L590.653 15.3999ZM634.909 5.27272C651.49 5.27272 665.634 8.91774 677.527 16.0201L682.654 7.43443C668.972 -0.735939 652.995 -4.72728 634.909 -4.72728V5.27272ZM677.536 16.0254C689.374 23.0611 698.003 33.3468 703.441 47.1099L712.741 43.4356C706.542 27.7441 696.505 15.6661 682.646 7.4291L677.536 16.0254ZM703.447 47.1264C708.888 60.7561 710.121 77.7431 706.704 98.3644L716.569 99.9992C720.182 78.1962 719.052 59.2438 712.735 43.4191L703.447 47.1264ZM665.665 94.1492C667.417 83.14 667.605 73.5294 665.994 65.474L656.188 67.4351C657.486 73.9251 657.432 82.2539 655.789 92.5781L665.665 94.1492ZM665.995 65.4818C664.371 57.2906 660.83 50.5976 655.014 45.9899L648.804 53.8283C652.321 56.6146 654.902 60.9519 656.186 67.4273L665.995 65.4818ZM655.045 46.0146C649.244 41.3436 641.749 39.2727 633.091 39.2727V49.2727C640.191 49.2727 645.241 50.9594 648.773 53.8035L655.045 46.0146ZM633.091 39.2727C623.272 39.2727 614.388 41.6737 606.603 46.5907L611.943 55.0456C617.975 51.2354 624.971 49.2727 633.091 49.2727V39.2727ZM606.603 46.5907C598.888 51.4635 592.613 58.4011 587.72 67.2081L596.462 72.0646C600.66 64.5079 605.84 58.9001 611.943 55.0456L606.603 46.5907ZM587.72 67.2081C582.83 76.0102 579.495 86.4449 577.607 98.402L587.484 99.9616C589.233 88.8884 592.261 79.6261 596.462 72.0646L587.72 67.2081ZM577.624 98.2971C575.621 109.442 575.347 119.133 577.117 127.167L586.883 125.015C585.501 118.746 585.591 110.497 587.467 100.067L577.624 98.2971ZM577.126 127.206C578.964 135.241 582.703 141.751 588.645 146.188L594.628 138.176C590.994 135.461 588.308 131.244 586.874 124.976L577.126 127.206ZM588.669 146.206C594.595 150.577 602.028 152.545 610.545 152.545V142.545C603.548 142.545 598.374 140.938 594.604 138.158L588.669 146.206ZM610.545 152.545C620.229 152.545 628.985 150.212 636.65 145.422L631.35 136.942C625.439 140.636 618.559 142.545 610.545 142.545V152.545ZM636.633 145.432C644.305 140.68 650.531 133.854 655.369 125.158L646.631 120.296C642.499 127.722 637.392 133.199 631.367 136.931L636.633 145.432ZM655.355 125.183C660.249 116.506 663.646 106.137 665.658 94.194L655.797 92.5332C653.929 103.62 650.842 112.828 646.645 120.271L655.355 125.183Z" fill="#3C7068" mask="url(#path-13-outside-1_60_4)"/>
<mask id="path-15-outside-2_60_4" maskUnits="userSpaceOnUse" x="714" y="496" width="1504" height="202" fill="black">
<rect fill="white" x="714" y="496" width="1504" height="202"/>
<path d="M720.364 690L751.273 503.818H831.636C845.455 503.818 857.091 506.545 866.545 512C876 517.455 882.788 525.121 886.909 535C891.03 544.879 892 556.424 889.818 569.636C887.636 583.091 882.788 594.697 875.273 604.455C867.818 614.152 858.303 621.636 846.727 626.909C835.212 632.121 822.303 634.727 808 634.727H760L766.545 595.455H804.364C810.424 595.455 815.758 594.424 820.364 592.364C824.97 590.242 828.697 587.273 831.545 583.455C834.394 579.576 836.242 574.97 837.091 569.636C837.939 564.303 837.545 559.758 835.909 556C834.333 552.182 831.606 549.273 827.727 547.273C823.909 545.212 819.03 544.182 813.091 544.182H795.273L770.909 690H720.364ZM1083.64 600.182C1080.24 620.424 1073.52 637.394 1063.45 651.091C1053.39 664.788 1041.18 675.121 1026.82 682.091C1012.45 689.061 997.091 692.545 980.727 692.545C963.273 692.545 948.121 688.758 935.273 681.182C922.424 673.606 913.061 662.515 907.182 647.909C901.303 633.303 900.121 615.455 903.636 594.364C906.909 574.121 913.576 557.091 923.636 543.273C933.697 529.455 945.97 519 960.455 511.909C974.939 504.818 990.424 501.273 1006.91 501.273C1024.24 501.273 1039.3 505.091 1052.09 512.727C1064.94 520.364 1074.27 531.545 1080.09 546.273C1085.97 561 1087.15 578.97 1083.64 600.182ZM1032.73 594.364C1034.42 583.697 1034.55 574.727 1033.09 567.455C1031.64 560.121 1028.58 554.606 1023.91 550.909C1019.24 547.152 1012.97 545.273 1005.09 545.273C996.121 545.273 988.182 547.455 981.273 551.818C974.364 556.182 968.636 562.455 964.091 570.636C959.545 578.818 956.364 588.667 954.545 600.182C952.606 610.97 952.424 619.939 954 627.091C955.636 634.242 958.848 639.606 963.636 643.182C968.485 646.758 974.788 648.545 982.545 648.545C991.394 648.545 999.212 646.424 1006 642.182C1012.85 637.939 1018.52 631.788 1023 623.727C1027.55 615.667 1030.79 605.879 1032.73 594.364ZM1092.11 690L1123.02 503.818H1203.39C1217.2 503.818 1228.87 506.333 1238.39 511.364C1247.9 516.394 1254.75 523.636 1258.93 533.091C1263.11 542.545 1264.11 553.879 1261.93 567.091C1259.75 580.424 1254.93 591.667 1247.48 600.818C1240.08 609.909 1230.66 616.818 1219.2 621.545C1207.81 626.212 1195.02 628.545 1180.84 628.545H1132.84L1139.39 589.273H1177.2C1183.14 589.273 1188.36 588.545 1192.84 587.091C1197.33 585.576 1200.96 583.212 1203.75 580C1206.54 576.727 1208.36 572.424 1209.2 567.091C1210.05 561.758 1209.63 557.424 1207.93 554.091C1206.23 550.697 1203.42 548.212 1199.48 546.636C1195.54 545 1190.66 544.182 1184.84 544.182H1167.02L1142.66 690H1092.11ZM1215.39 604.545L1247.75 690H1192.84L1161.57 604.545H1215.39ZM1284.52 544.545L1291.43 503.818H1453.25L1446.34 544.545H1390.34L1366.34 690H1316.52L1340.52 544.545H1284.52ZM1441.36 690L1472.27 503.818H1603.18L1596.27 544.545H1515.91L1510.82 576.545H1583.18L1576.27 617.273H1503.91L1491.91 690H1441.36ZM1786.14 600.182C1782.74 620.424 1776.02 637.394 1765.95 651.091C1755.89 664.788 1743.68 675.121 1729.32 682.091C1714.95 689.061 1699.59 692.545 1683.23 692.545C1665.77 692.545 1650.62 688.758 1637.77 681.182C1624.92 673.606 1615.56 662.515 1609.68 647.909C1603.8 633.303 1602.62 615.455 1606.14 594.364C1609.41 574.121 1616.08 557.091 1626.14 543.273C1636.2 529.455 1648.47 519 1662.95 511.909C1677.44 504.818 1692.92 501.273 1709.41 501.273C1726.74 501.273 1741.8 505.091 1754.59 512.727C1767.44 520.364 1776.77 531.545 1782.59 546.273C1788.47 561 1789.65 578.97 1786.14 600.182ZM1735.23 594.364C1736.92 583.697 1737.05 574.727 1735.59 567.455C1734.14 560.121 1731.08 554.606 1726.41 550.909C1721.74 547.152 1715.47 545.273 1707.59 545.273C1698.62 545.273 1690.68 547.455 1683.77 551.818C1676.86 556.182 1671.14 562.455 1666.59 570.636C1662.05 578.818 1658.86 588.667 1657.05 600.182C1655.11 610.97 1654.92 619.939 1656.5 627.091C1658.14 634.242 1661.35 639.606 1666.14 643.182C1670.98 646.758 1677.29 648.545 1685.05 648.545C1693.89 648.545 1701.71 646.424 1708.5 642.182C1715.35 637.939 1721.02 631.788 1725.5 623.727C1730.05 615.667 1733.29 605.879 1735.23 594.364ZM1794.61 690L1825.52 503.818H1876.07L1852.07 649.273H1927.34L1920.43 690H1794.61ZM2022.32 503.818L1991.41 690H1940.86L1971.77 503.818H2022.32ZM2210.64 600.182C2207.24 620.424 2200.52 637.394 2190.45 651.091C2180.39 664.788 2168.18 675.121 2153.82 682.091C2139.45 689.061 2124.09 692.545 2107.73 692.545C2090.27 692.545 2075.12 688.758 2062.27 681.182C2049.42 673.606 2040.06 662.515 2034.18 647.909C2028.3 633.303 2027.12 615.455 2030.64 594.364C2033.91 574.121 2040.58 557.091 2050.64 543.273C2060.7 529.455 2072.97 519 2087.45 511.909C2101.94 504.818 2117.42 501.273 2133.91 501.273C2151.24 501.273 2166.3 505.091 2179.09 512.727C2191.94 520.364 2201.27 531.545 2207.09 546.273C2212.97 561 2214.15 578.97 2210.64 600.182ZM2159.73 594.364C2161.42 583.697 2161.55 574.727 2160.09 567.455C2158.64 560.121 2155.58 554.606 2150.91 550.909C2146.24 547.152 2139.97 545.273 2132.09 545.273C2123.12 545.273 2115.18 547.455 2108.27 551.818C2101.36 556.182 2095.64 562.455 2091.09 570.636C2086.55 578.818 2083.36 588.667 2081.55 600.182C2079.61 610.97 2079.42 619.939 2081 627.091C2082.64 634.242 2085.85 639.606 2090.64 643.182C2095.48 646.758 2101.79 648.545 2109.55 648.545C2118.39 648.545 2126.21 646.424 2133 642.182C2139.85 637.939 2145.52 631.788 2150 623.727C2154.55 615.667 2157.79 605.879 2159.73 594.364Z"/>
</mask>
<path d="M720.364 690L715.431 689.181L714.465 695H720.364V690ZM751.273 503.818V498.818H747.034L746.34 502.999L751.273 503.818ZM866.545 512L864.047 516.331L864.047 516.331L866.545 512ZM886.909 535L891.524 533.075L891.524 533.075L886.909 535ZM889.818 569.636L884.885 568.822L884.884 568.829L884.883 568.836L889.818 569.636ZM875.273 604.455L871.311 601.404L871.309 601.407L875.273 604.455ZM846.727 626.909L848.789 631.464L848.8 631.459L846.727 626.909ZM760 634.727L755.068 633.905L754.098 639.727H760V634.727ZM766.545 595.455V590.455H762.31L761.613 594.633L766.545 595.455ZM820.364 592.364L822.405 596.928L822.43 596.917L822.455 596.905L820.364 592.364ZM831.545 583.455L835.553 586.444L835.564 586.429L835.575 586.414L831.545 583.455ZM837.091 569.636L842.029 570.422L842.029 570.422L837.091 569.636ZM835.909 556L831.287 557.907L831.306 557.952L831.325 557.996L835.909 556ZM827.727 547.273L825.353 551.673L825.394 551.695L825.436 551.717L827.727 547.273ZM795.273 544.182V539.182H791.039L790.341 543.358L795.273 544.182ZM770.909 690V695H775.143L775.841 690.824L770.909 690ZM725.296 690.819L756.205 504.637L746.34 502.999L715.431 689.181L725.296 690.819ZM751.273 508.818H831.636V498.818H751.273V508.818ZM831.636 508.818C844.807 508.818 855.529 511.417 864.047 516.331L869.044 507.669C858.653 501.674 846.102 498.818 831.636 498.818V508.818ZM864.047 516.331C872.572 521.249 878.605 528.08 882.295 536.925L891.524 533.075C886.971 522.162 879.428 513.66 869.044 507.669L864.047 516.331ZM882.295 536.925C885.974 545.745 886.952 556.304 884.885 568.822L894.751 570.451C897.048 556.545 896.086 544.012 891.524 533.075L882.295 536.925ZM884.883 568.836C882.819 581.56 878.268 592.372 871.311 601.404L879.234 607.505C887.308 597.022 892.453 584.622 894.754 570.437L884.883 568.836ZM871.309 601.407C864.373 610.43 855.517 617.411 844.655 622.359L848.8 631.459C861.089 625.862 871.264 617.873 879.237 607.502L871.309 601.407ZM844.665 622.354C833.878 627.237 821.686 629.727 808 629.727V639.727C822.92 639.727 836.546 637.006 848.789 631.464L844.665 622.354ZM808 629.727H760V639.727H808V629.727ZM764.932 635.549L771.477 596.277L761.613 594.633L755.068 633.905L764.932 635.549ZM766.545 600.455H804.364V590.455H766.545V600.455ZM804.364 600.455C810.989 600.455 817.041 599.328 822.405 596.928L818.322 587.8C814.474 589.521 809.86 590.455 804.364 590.455V600.455ZM822.455 596.905C827.769 594.458 832.173 590.975 835.553 586.444L827.538 580.465C825.221 583.571 822.17 586.027 818.272 587.822L822.455 596.905ZM835.575 586.414C838.95 581.818 841.071 576.445 842.029 570.422L832.153 568.851C831.414 573.495 829.837 577.333 827.515 580.495L835.575 586.414ZM842.029 570.422C842.981 564.44 842.614 558.873 840.493 554.004L831.325 557.996C832.477 560.642 832.898 564.166 832.153 568.851L842.029 570.422ZM840.531 554.093C838.476 549.114 834.886 545.338 830.019 542.829L825.436 551.717C828.326 553.207 830.19 555.249 831.287 557.907L840.531 554.093ZM830.102 542.873C825.335 540.3 819.568 539.182 813.091 539.182V549.182C818.493 549.182 822.483 550.124 825.353 551.673L830.102 542.873ZM813.091 539.182H795.273V549.182H813.091V539.182ZM790.341 543.358L765.977 689.176L775.841 690.824L800.204 545.006L790.341 543.358ZM770.909 685H720.364V695H770.909V685ZM1083.64 600.182L1088.57 601.009L1088.57 600.999L1083.64 600.182ZM1063.45 651.091L1059.42 648.131L1059.42 648.131L1063.45 651.091ZM1026.82 682.091L1029 686.589L1029 686.589L1026.82 682.091ZM935.273 681.182L937.812 676.875L935.273 681.182ZM907.182 647.909L911.82 646.042L911.82 646.042L907.182 647.909ZM903.636 594.364L908.568 595.186L908.57 595.174L908.572 595.162L903.636 594.364ZM923.636 543.273L919.594 540.33L919.594 540.33L923.636 543.273ZM960.455 511.909L958.256 507.418L958.256 507.418L960.455 511.909ZM1052.09 512.727L1049.53 517.02L1049.54 517.025L1052.09 512.727ZM1080.09 546.273L1075.44 548.11L1075.44 548.118L1075.45 548.126L1080.09 546.273ZM1032.73 594.364L1037.66 595.194L1037.66 595.172L1037.67 595.149L1032.73 594.364ZM1033.09 567.455L1028.19 568.427L1028.19 568.435L1033.09 567.455ZM1023.91 550.909L1020.77 554.804L1020.79 554.816L1020.8 554.828L1023.91 550.909ZM981.273 551.818L978.603 547.591L978.603 547.591L981.273 551.818ZM954.545 600.182L959.467 601.067L959.476 601.014L959.484 600.962L954.545 600.182ZM954 627.091L949.117 628.167L949.121 628.186L949.126 628.206L954 627.091ZM963.636 643.182L960.644 647.188L960.657 647.197L960.669 647.206L963.636 643.182ZM1006 642.182L1003.37 637.931L1003.36 637.937L1003.35 637.942L1006 642.182ZM1023 623.727L1018.64 621.271L1018.64 621.284L1018.63 621.296L1023 623.727ZM1078.71 599.355C1075.41 618.984 1068.94 635.183 1059.42 648.131L1067.48 654.051C1078.09 639.605 1085.07 621.864 1088.57 601.009L1078.71 599.355ZM1059.42 648.131C1049.81 661.216 1038.22 671.001 1024.64 677.593L1029 686.589C1044.14 679.242 1056.97 668.36 1067.48 654.051L1059.42 648.131ZM1024.64 677.593C1010.97 684.224 996.354 687.545 980.727 687.545V697.545C997.828 697.545 1013.94 693.898 1029 686.589L1024.64 677.593ZM980.727 687.545C964.012 687.545 949.769 683.925 937.812 676.875L932.733 685.489C946.473 693.59 962.533 697.545 980.727 697.545V687.545ZM937.812 676.875C925.968 669.891 917.312 659.687 911.82 646.042L902.543 649.776C908.809 665.344 918.88 677.321 932.733 685.489L937.812 676.875ZM911.82 646.042C906.386 632.541 905.152 615.684 908.568 595.186L898.704 593.542C895.09 615.226 896.22 634.065 902.543 649.776L911.82 646.042ZM908.572 595.162C911.744 575.541 918.164 559.284 927.679 546.216L919.594 540.33C908.988 554.897 902.074 572.701 898.7 593.566L908.572 595.162ZM927.679 546.216C937.289 533.015 948.943 523.111 962.653 516.4L958.256 507.418C942.996 514.889 930.105 525.894 919.594 540.33L927.679 546.216ZM962.653 516.4C976.438 509.652 991.169 506.273 1006.91 506.273V496.273C989.68 496.273 973.441 499.985 958.256 507.418L962.653 516.4ZM1006.91 506.273C1023.49 506.273 1037.63 509.918 1049.53 517.02L1054.65 508.434C1040.97 500.264 1025 496.273 1006.91 496.273V506.273ZM1049.54 517.025C1061.37 524.061 1070 534.347 1075.44 548.11L1084.74 544.436C1078.54 528.744 1068.5 516.666 1054.65 508.429L1049.54 517.025ZM1075.45 548.126C1080.89 561.756 1082.12 578.743 1078.7 599.364L1088.57 600.999C1092.18 579.196 1091.05 560.244 1084.73 544.419L1075.45 548.126ZM1037.67 595.149C1039.42 584.14 1039.6 574.529 1037.99 566.474L1028.19 568.435C1029.49 574.925 1029.43 583.254 1027.79 593.578L1037.67 595.149ZM1038 566.482C1036.37 558.291 1032.83 551.598 1027.01 546.99L1020.8 554.828C1024.32 557.615 1026.9 561.952 1028.19 568.427L1038 566.482ZM1027.04 547.015C1021.24 542.344 1013.75 540.273 1005.09 540.273V550.273C1012.19 550.273 1017.24 551.959 1020.77 554.804L1027.04 547.015ZM1005.09 540.273C995.272 540.273 986.388 542.674 978.603 547.591L983.943 556.046C989.976 552.235 996.971 550.273 1005.09 550.273V540.273ZM978.603 547.591C970.888 552.464 964.613 559.401 959.72 568.208L968.462 573.065C972.66 565.508 977.84 559.9 983.943 556.046L978.603 547.591ZM959.72 568.208C954.83 577.01 951.495 587.445 949.607 599.402L959.484 600.962C961.233 589.888 964.261 580.626 968.462 573.065L959.72 568.208ZM949.624 599.297C947.621 610.442 947.347 620.133 949.117 628.167L958.883 626.015C957.502 619.746 957.591 611.497 959.467 601.067L949.624 599.297ZM949.126 628.206C950.964 636.241 954.703 642.751 960.644 647.188L966.628 639.176C962.994 636.461 960.308 632.244 958.874 625.976L949.126 628.206ZM960.669 647.206C966.595 651.577 974.028 653.545 982.545 653.545V643.545C975.548 643.545 970.374 641.938 966.604 639.158L960.669 647.206ZM982.545 653.545C992.229 653.545 1000.99 651.212 1008.65 646.422L1003.35 637.942C997.439 641.636 990.559 643.545 982.545 643.545V653.545ZM1008.63 646.432C1016.31 641.68 1022.53 634.854 1027.37 626.158L1018.63 621.296C1014.5 628.722 1009.39 634.199 1003.37 637.931L1008.63 646.432ZM1027.36 626.183C1032.25 617.506 1035.65 607.137 1037.66 595.194L1027.8 593.533C1025.93 604.62 1022.84 613.828 1018.64 621.271L1027.36 626.183ZM1092.11 690L1087.18 689.181L1086.22 695H1092.11V690ZM1123.02 503.818V498.818H1118.78L1118.09 502.999L1123.02 503.818ZM1258.93 533.091L1263.5 531.068L1263.5 531.068L1258.93 533.091ZM1261.93 567.091L1257 566.276L1257 566.283L1261.93 567.091ZM1247.48 600.818L1243.6 597.66L1243.6 597.663L1247.48 600.818ZM1219.2 621.545L1221.1 626.172L1221.11 626.167L1219.2 621.545ZM1132.84 628.545L1127.91 627.723L1126.94 633.545H1132.84V628.545ZM1139.39 589.273V584.273H1135.15L1134.45 588.451L1139.39 589.273ZM1192.84 587.091L1194.38 591.847L1194.41 591.838L1194.44 591.828L1192.84 587.091ZM1203.75 580L1207.53 583.277L1207.54 583.26L1207.56 583.242L1203.75 580ZM1209.2 567.091L1204.27 566.305L1204.27 566.305L1209.2 567.091ZM1207.93 554.091L1203.46 556.327L1203.47 556.343L1203.48 556.359L1207.93 554.091ZM1199.48 546.636L1197.56 551.254L1197.59 551.266L1197.62 551.279L1199.48 546.636ZM1167.02 544.182V539.182H1162.79L1162.09 543.358L1167.02 544.182ZM1142.66 690V695H1146.89L1147.59 690.824L1142.66 690ZM1215.39 604.545L1220.06 602.775L1218.84 599.545H1215.39V604.545ZM1247.75 690V695H1254.99L1252.43 688.229L1247.75 690ZM1192.84 690L1188.15 691.718L1189.35 695H1192.84V690ZM1161.57 604.545V599.545H1154.41L1156.87 606.264L1161.57 604.545ZM1097.05 690.819L1127.96 504.637L1118.09 502.999L1087.18 689.181L1097.05 690.819ZM1123.02 508.818H1203.39V498.818H1123.02V508.818ZM1203.39 508.818C1216.61 508.818 1227.43 511.227 1236.05 515.784L1240.72 506.943C1230.31 501.44 1217.79 498.818 1203.39 498.818V508.818ZM1236.05 515.784C1244.62 520.312 1250.65 526.731 1254.36 535.113L1263.5 531.068C1258.85 520.541 1251.19 512.476 1240.72 506.943L1236.05 515.784ZM1254.36 535.113C1258.05 543.449 1259.07 553.744 1257 566.276L1266.87 567.906C1269.16 554.013 1268.18 541.642 1263.5 531.068L1254.36 535.113ZM1257 566.283C1254.94 578.881 1250.43 589.279 1243.6 597.66L1251.35 603.976C1259.44 594.054 1264.56 581.967 1266.87 567.898L1257 566.283ZM1243.6 597.663C1236.76 606.072 1228.03 612.495 1217.3 616.924L1221.11 626.167C1233.29 621.142 1243.41 613.747 1251.36 603.973L1243.6 597.663ZM1217.31 616.919C1206.6 621.304 1194.47 623.545 1180.84 623.545V633.545C1195.57 633.545 1209.02 631.12 1221.1 626.172L1217.31 616.919ZM1180.84 623.545H1132.84V633.545H1180.84V623.545ZM1137.77 629.367L1144.32 590.095L1134.45 588.451L1127.91 627.723L1137.77 629.367ZM1139.39 594.273H1177.2V584.273H1139.39V594.273ZM1177.2 594.273C1183.54 594.273 1189.29 593.499 1194.38 591.847L1191.3 582.335C1187.42 583.592 1182.75 584.273 1177.2 584.273V594.273ZM1194.44 591.828C1199.67 590.061 1204.09 587.234 1207.53 583.277L1199.97 576.723C1197.83 579.19 1194.98 581.09 1191.24 582.354L1194.44 591.828ZM1207.56 583.242C1211.07 579.112 1213.19 573.887 1214.14 567.876L1204.27 566.305C1203.53 570.962 1202 574.343 1199.94 576.758L1207.56 583.242ZM1214.14 567.876C1215.09 561.945 1214.73 556.432 1212.39 551.822L1203.48 556.359C1204.52 558.416 1205.02 561.57 1204.27 566.305L1214.14 567.876ZM1212.4 551.855C1210.09 547.234 1206.27 543.967 1201.33 541.994L1197.62 551.279C1200.57 552.457 1202.38 554.16 1203.46 556.327L1212.4 551.855ZM1201.4 542.019C1196.67 540.056 1191.09 539.182 1184.84 539.182V549.182C1190.23 549.182 1194.41 549.944 1197.56 551.254L1201.4 542.019ZM1184.84 539.182H1167.02V549.182H1184.84V539.182ZM1162.09 543.358L1137.73 689.176L1147.59 690.824L1171.95 545.006L1162.09 543.358ZM1142.66 685H1092.11V695H1142.66V685ZM1210.71 606.316L1243.07 691.771L1252.43 688.229L1220.06 602.775L1210.71 606.316ZM1247.75 685H1192.84V695H1247.75V685ZM1197.54 688.282L1166.26 602.827L1156.87 606.264L1188.15 691.718L1197.54 688.282ZM1161.57 609.545H1215.39V599.545H1161.57V609.545ZM1284.52 544.545L1279.59 543.709L1278.6 549.545H1284.52V544.545ZM1291.43 503.818V498.818H1287.21L1286.5 502.982L1291.43 503.818ZM1453.25 503.818L1458.18 504.654L1459.17 498.818H1453.25V503.818ZM1446.34 544.545V549.545H1450.56L1451.27 545.382L1446.34 544.545ZM1390.34 544.545V539.545H1386.1L1385.41 543.731L1390.34 544.545ZM1366.34 690V695H1370.58L1371.27 690.814L1366.34 690ZM1316.52 690L1311.59 689.186L1310.63 695H1316.52V690ZM1340.52 544.545L1345.46 545.359L1346.42 539.545H1340.52V544.545ZM1289.45 545.382L1296.36 504.654L1286.5 502.982L1279.59 543.709L1289.45 545.382ZM1291.43 508.818H1453.25V498.818H1291.43V508.818ZM1448.32 502.982L1441.41 543.709L1451.27 545.382L1458.18 504.654L1448.32 502.982ZM1446.34 539.545H1390.34V549.545H1446.34V539.545ZM1385.41 543.731L1361.41 689.186L1371.27 690.814L1395.27 545.359L1385.41 543.731ZM1366.34 685H1316.52V695H1366.34V685ZM1321.46 690.814L1345.46 545.359L1335.59 543.731L1311.59 689.186L1321.46 690.814ZM1340.52 539.545H1284.52V549.545H1340.52V539.545ZM1441.36 690L1436.43 689.181L1435.47 695H1441.36V690ZM1472.27 503.818V498.818H1468.03L1467.34 502.999L1472.27 503.818ZM1603.18 503.818L1608.11 504.654L1609.1 498.818H1603.18V503.818ZM1596.27 544.545V549.545H1600.5L1601.2 545.382L1596.27 544.545ZM1515.91 544.545V539.545H1511.64L1510.97 543.76L1515.91 544.545ZM1510.82 576.545L1505.88 575.76L1504.96 581.545H1510.82V576.545ZM1583.18 576.545L1588.11 577.382L1589.1 571.545H1583.18V576.545ZM1576.27 617.273V622.273H1580.5L1581.2 618.109L1576.27 617.273ZM1503.91 617.273V612.273H1499.67L1498.98 616.459L1503.91 617.273ZM1491.91 690V695H1496.15L1496.84 690.814L1491.91 690ZM1446.3 690.819L1477.21 504.637L1467.34 502.999L1436.43 689.181L1446.3 690.819ZM1472.27 508.818H1603.18V498.818H1472.27V508.818ZM1598.25 502.982L1591.34 543.709L1601.2 545.382L1608.11 504.654L1598.25 502.982ZM1596.27 539.545H1515.91V549.545H1596.27V539.545ZM1510.97 543.76L1505.88 575.76L1515.76 577.331L1520.85 545.331L1510.97 543.76ZM1510.82 581.545H1583.18V571.545H1510.82V581.545ZM1578.25 575.709L1571.34 616.436L1581.2 618.109L1588.11 577.382L1578.25 575.709ZM1576.27 612.273H1503.91V622.273H1576.27V612.273ZM1498.98 616.459L1486.98 689.186L1496.84 690.814L1508.84 618.087L1498.98 616.459ZM1491.91 685H1441.36V695H1491.91V685ZM1786.14 600.182L1791.07 601.009L1791.07 600.999L1786.14 600.182ZM1765.95 651.091L1761.92 648.131L1761.92 648.131L1765.95 651.091ZM1729.32 682.091L1731.5 686.589L1731.5 686.589L1729.32 682.091ZM1637.77 681.182L1640.31 676.875L1637.77 681.182ZM1609.68 647.909L1614.32 646.042L1614.32 646.042L1609.68 647.909ZM1606.14 594.364L1611.07 595.186L1611.07 595.174L1611.07 595.162L1606.14 594.364ZM1626.14 543.273L1622.09 540.33L1622.09 540.33L1626.14 543.273ZM1662.95 511.909L1660.76 507.418L1660.76 507.418L1662.95 511.909ZM1754.59 512.727L1752.03 517.02L1752.04 517.025L1754.59 512.727ZM1782.59 546.273L1777.94 548.11L1777.94 548.118L1777.95 548.126L1782.59 546.273ZM1735.23 594.364L1740.16 595.194L1740.16 595.172L1740.17 595.149L1735.23 594.364ZM1735.59 567.455L1730.69 568.427L1730.69 568.435L1735.59 567.455ZM1726.41 550.909L1723.27 554.804L1723.29 554.816L1723.3 554.828L1726.41 550.909ZM1683.77 551.818L1681.1 547.591L1681.1 547.591L1683.77 551.818ZM1657.05 600.182L1661.97 601.067L1661.98 601.014L1661.98 600.962L1657.05 600.182ZM1656.5 627.091L1651.62 628.167L1651.62 628.186L1651.63 628.206L1656.5 627.091ZM1666.14 643.182L1663.14 647.188L1663.16 647.197L1663.17 647.206L1666.14 643.182ZM1708.5 642.182L1705.87 637.931L1705.86 637.937L1705.85 637.942L1708.5 642.182ZM1725.5 623.727L1721.14 621.271L1721.14 621.284L1721.13 621.296L1725.5 623.727ZM1781.21 599.355C1777.91 618.984 1771.44 635.183 1761.92 648.131L1769.98 654.051C1780.59 639.605 1787.57 621.864 1791.07 601.009L1781.21 599.355ZM1761.92 648.131C1752.31 661.216 1740.72 671.001 1727.14 677.593L1731.5 686.589C1746.64 679.242 1759.47 668.36 1769.98 654.051L1761.92 648.131ZM1727.14 677.593C1713.47 684.224 1698.85 687.545 1683.23 687.545V697.545C1700.33 697.545 1716.44 693.898 1731.5 686.589L1727.14 677.593ZM1683.23 687.545C1666.51 687.545 1652.27 683.925 1640.31 676.875L1635.23 685.489C1648.97 693.59 1665.03 697.545 1683.23 697.545V687.545ZM1640.31 676.875C1628.47 669.891 1619.81 659.687 1614.32 646.042L1605.04 649.776C1611.31 665.344 1621.38 677.321 1635.23 685.489L1640.31 676.875ZM1614.32 646.042C1608.89 632.541 1607.65 615.684 1611.07 595.186L1601.2 593.542C1597.59 615.226 1598.72 634.065 1605.04 649.776L1614.32 646.042ZM1611.07 595.162C1614.24 575.541 1620.66 559.284 1630.18 546.216L1622.09 540.33C1611.49 554.897 1604.57 572.701 1601.2 593.566L1611.07 595.162ZM1630.18 546.216C1639.79 533.015 1651.44 523.111 1665.15 516.4L1660.76 507.418C1645.5 514.889 1632.6 525.894 1622.09 540.33L1630.18 546.216ZM1665.15 516.4C1678.94 509.652 1693.67 506.273 1709.41 506.273V496.273C1692.18 496.273 1675.94 499.985 1660.76 507.418L1665.15 516.4ZM1709.41 506.273C1725.99 506.273 1740.13 509.918 1752.03 517.02L1757.15 508.434C1743.47 500.264 1727.5 496.273 1709.41 496.273V506.273ZM1752.04 517.025C1763.87 524.061 1772.5 534.347 1777.94 548.11L1787.24 544.436C1781.04 528.744 1771 516.666 1757.15 508.429L1752.04 517.025ZM1777.95 548.126C1783.39 561.756 1784.62 578.743 1781.2 599.364L1791.07 600.999C1794.68 579.196 1793.55 560.244 1787.23 544.419L1777.95 548.126ZM1740.17 595.149C1741.92 584.14 1742.1 574.529 1740.49 566.474L1730.69 568.435C1731.99 574.925 1731.93 583.254 1730.29 593.578L1740.17 595.149ZM1740.5 566.482C1738.87 558.291 1735.33 551.598 1729.51 546.99L1723.3 554.828C1726.82 557.615 1729.4 561.952 1730.69 568.427L1740.5 566.482ZM1729.54 547.015C1723.74 542.344 1716.25 540.273 1707.59 540.273V550.273C1714.69 550.273 1719.74 551.959 1723.27 554.804L1729.54 547.015ZM1707.59 540.273C1697.77 540.273 1688.89 542.674 1681.1 547.591L1686.44 556.046C1692.48 552.235 1699.47 550.273 1707.59 550.273V540.273ZM1681.1 547.591C1673.39 552.464 1667.11 559.401 1662.22 568.208L1670.96 573.065C1675.16 565.508 1680.34 559.9 1686.44 556.046L1681.1 547.591ZM1662.22 568.208C1657.33 577.01 1653.99 587.445 1652.11 599.402L1661.98 600.962C1663.73 589.888 1666.76 580.626 1670.96 573.065L1662.22 568.208ZM1652.12 599.297C1650.12 610.442 1649.85 620.133 1651.62 628.167L1661.38 626.015C1660 619.746 1660.09 611.497 1661.97 601.067L1652.12 599.297ZM1651.63 628.206C1653.46 636.241 1657.2 642.751 1663.14 647.188L1669.13 639.176C1665.49 636.461 1662.81 632.244 1661.37 625.976L1651.63 628.206ZM1663.17 647.206C1669.1 651.577 1676.53 653.545 1685.05 653.545V643.545C1678.05 643.545 1672.87 641.938 1669.1 639.158L1663.17 647.206ZM1685.05 653.545C1694.73 653.545 1703.49 651.212 1711.15 646.422L1705.85 637.942C1699.94 641.636 1693.06 643.545 1685.05 643.545V653.545ZM1711.13 646.432C1718.81 641.68 1725.03 634.854 1729.87 626.158L1721.13 621.296C1717 628.722 1711.89 634.199 1705.87 637.931L1711.13 646.432ZM1729.86 626.183C1734.75 617.506 1738.15 607.137 1740.16 595.194L1730.3 593.533C1728.43 604.62 1725.34 613.828 1721.14 621.271L1729.86 626.183ZM1794.61 690L1789.68 689.181L1788.72 695H1794.61V690ZM1825.52 503.818V498.818H1821.28L1820.59 502.999L1825.52 503.818ZM1876.07 503.818L1881 504.632L1881.96 498.818H1876.07V503.818ZM1852.07 649.273L1847.13 648.459L1846.18 654.273H1852.07V649.273ZM1927.34 649.273L1932.27 650.109L1933.26 644.273H1927.34V649.273ZM1920.43 690V695H1924.66L1925.36 690.836L1920.43 690ZM1799.55 690.819L1830.46 504.637L1820.59 502.999L1789.68 689.181L1799.55 690.819ZM1825.52 508.818H1876.07V498.818H1825.52V508.818ZM1871.13 503.004L1847.13 648.459L1857 650.087L1881 504.632L1871.13 503.004ZM1852.07 654.273H1927.34V644.273H1852.07V654.273ZM1922.41 648.436L1915.5 689.164L1925.36 690.836L1932.27 650.109L1922.41 648.436ZM1920.43 685H1794.61V695H1920.43V685ZM2022.32 503.818L2027.25 504.637L2028.22 498.818H2022.32V503.818ZM1991.41 690V695H1995.65L1996.34 690.819L1991.41 690ZM1940.86 690L1935.93 689.181L1934.97 695H1940.86V690ZM1971.77 503.818V498.818H1967.53L1966.84 502.999L1971.77 503.818ZM2017.39 502.999L1986.48 689.181L1996.34 690.819L2027.25 504.637L2017.39 502.999ZM1991.41 685H1940.86V695H1991.41V685ZM1945.8 690.819L1976.71 504.637L1966.84 502.999L1935.93 689.181L1945.8 690.819ZM1971.77 508.818H2022.32V498.818H1971.77V508.818ZM2210.64 600.182L2215.57 601.009L2215.57 600.999L2210.64 600.182ZM2190.45 651.091L2186.42 648.131L2186.42 648.131L2190.45 651.091ZM2153.82 682.091L2156 686.589L2156 686.589L2153.82 682.091ZM2062.27 681.182L2064.81 676.875L2062.27 681.182ZM2034.18 647.909L2038.82 646.042L2038.82 646.042L2034.18 647.909ZM2030.64 594.364L2035.57 595.186L2035.57 595.174L2035.57 595.162L2030.64 594.364ZM2050.64 543.273L2046.59 540.33L2046.59 540.33L2050.64 543.273ZM2087.45 511.909L2085.26 507.418L2085.26 507.418L2087.45 511.909ZM2179.09 512.727L2176.53 517.02L2176.54 517.025L2179.09 512.727ZM2207.09 546.273L2202.44 548.11L2202.44 548.118L2202.45 548.126L2207.09 546.273ZM2159.73 594.364L2164.66 595.194L2164.66 595.172L2164.67 595.149L2159.73 594.364ZM2160.09 567.455L2155.19 568.427L2155.19 568.435L2160.09 567.455ZM2150.91 550.909L2147.77 554.804L2147.79 554.816L2147.8 554.828L2150.91 550.909ZM2108.27 551.818L2105.6 547.591L2105.6 547.591L2108.27 551.818ZM2081.55 600.182L2086.47 601.067L2086.48 601.014L2086.48 600.962L2081.55 600.182ZM2081 627.091L2076.12 628.167L2076.12 628.186L2076.13 628.206L2081 627.091ZM2090.64 643.182L2087.64 647.188L2087.66 647.197L2087.67 647.206L2090.64 643.182ZM2133 642.182L2130.37 637.931L2130.36 637.937L2130.35 637.942L2133 642.182ZM2150 623.727L2145.64 621.271L2145.64 621.284L2145.63 621.296L2150 623.727ZM2205.71 599.355C2202.41 618.984 2195.94 635.183 2186.42 648.131L2194.48 654.051C2205.09 639.605 2212.07 621.864 2215.57 601.009L2205.71 599.355ZM2186.42 648.131C2176.81 661.216 2165.22 671.001 2151.64 677.593L2156 686.589C2171.14 679.242 2183.97 668.36 2194.48 654.051L2186.42 648.131ZM2151.64 677.593C2137.97 684.224 2123.35 687.545 2107.73 687.545V697.545C2124.83 697.545 2140.94 693.898 2156 686.589L2151.64 677.593ZM2107.73 687.545C2091.01 687.545 2076.77 683.925 2064.81 676.875L2059.73 685.489C2073.47 693.59 2089.53 697.545 2107.73 697.545V687.545ZM2064.81 676.875C2052.97 669.891 2044.31 659.687 2038.82 646.042L2029.54 649.776C2035.81 665.344 2045.88 677.321 2059.73 685.489L2064.81 676.875ZM2038.82 646.042C2033.39 632.541 2032.15 615.684 2035.57 595.186L2025.7 593.542C2022.09 615.226 2023.22 634.065 2029.54 649.776L2038.82 646.042ZM2035.57 595.162C2038.74 575.541 2045.16 559.284 2054.68 546.216L2046.59 540.33C2035.99 554.897 2029.07 572.701 2025.7 593.566L2035.57 595.162ZM2054.68 546.216C2064.29 533.015 2075.94 523.111 2089.65 516.4L2085.26 507.418C2070 514.889 2057.1 525.894 2046.59 540.33L2054.68 546.216ZM2089.65 516.4C2103.44 509.652 2118.17 506.273 2133.91 506.273V496.273C2116.68 496.273 2100.44 499.985 2085.26 507.418L2089.65 516.4ZM2133.91 506.273C2150.49 506.273 2164.63 509.918 2176.53 517.02L2181.65 508.434C2167.97 500.264 2152 496.273 2133.91 496.273V506.273ZM2176.54 517.025C2188.37 524.061 2197 534.347 2202.44 548.11L2211.74 544.436C2205.54 528.744 2195.5 516.666 2181.65 508.429L2176.54 517.025ZM2202.45 548.126C2207.89 561.756 2209.12 578.743 2205.7 599.364L2215.57 600.999C2219.18 579.196 2218.05 560.244 2211.73 544.419L2202.45 548.126ZM2164.67 595.149C2166.42 584.14 2166.6 574.529 2164.99 566.474L2155.19 568.435C2156.49 574.925 2156.43 583.254 2154.79 593.578L2164.67 595.149ZM2165 566.482C2163.37 558.291 2159.83 551.598 2154.01 546.99L2147.8 554.828C2151.32 557.615 2153.9 561.952 2155.19 568.427L2165 566.482ZM2154.04 547.015C2148.24 542.344 2140.75 540.273 2132.09 540.273V550.273C2139.19 550.273 2144.24 551.959 2147.77 554.804L2154.04 547.015ZM2132.09 540.273C2122.27 540.273 2113.39 542.674 2105.6 547.591L2110.94 556.046C2116.98 552.235 2123.97 550.273 2132.09 550.273V540.273ZM2105.6 547.591C2097.89 552.464 2091.61 559.401 2086.72 568.208L2095.46 573.065C2099.66 565.508 2104.84 559.9 2110.94 556.046L2105.6 547.591ZM2086.72 568.208C2081.83 577.01 2078.49 587.445 2076.61 599.402L2086.48 600.962C2088.23 589.888 2091.26 580.626 2095.46 573.065L2086.72 568.208ZM2076.62 599.297C2074.62 610.442 2074.35 620.133 2076.12 628.167L2085.88 626.015C2084.5 619.746 2084.59 611.497 2086.47 601.067L2076.62 599.297ZM2076.13 628.206C2077.96 636.241 2081.7 642.751 2087.64 647.188L2093.63 639.176C2089.99 636.461 2087.31 632.244 2085.87 625.976L2076.13 628.206ZM2087.67 647.206C2093.6 651.577 2101.03 653.545 2109.55 653.545V643.545C2102.55 643.545 2097.37 641.938 2093.6 639.158L2087.67 647.206ZM2109.55 653.545C2119.23 653.545 2127.99 651.212 2135.65 646.422L2130.35 637.942C2124.44 641.636 2117.56 643.545 2109.55 643.545V653.545ZM2135.63 646.432C2143.31 641.68 2149.53 634.854 2154.37 626.158L2145.63 621.296C2141.5 628.722 2136.39 634.199 2130.37 637.931L2135.63 646.432ZM2154.36 626.183C2159.25 617.506 2162.65 607.137 2164.66 595.194L2154.8 593.533C2152.93 604.62 2149.84 613.828 2145.64 621.271L2154.36 626.183Z" fill="#3C7068" mask="url(#path-15-outside-2_60_4)"/>
</svg>
