<svg width="1170" height="150" viewBox="0 0 1170 150" fill="none" xmlns="http://www.w3.org/2000/svg">
<mask id="path-1-outside-1_36_2" maskUnits="userSpaceOnUse" x="-4" y="-4" width="1175" height="158" fill="black">
<rect fill="white" x="-4" y="-4" width="1175" height="158"/>
<path d="M0.834872 148L24.9826 2.54545H87.7667C98.5622 2.54545 107.653 4.67613 115.039 8.9375C122.426 13.1989 127.729 19.1884 130.949 26.9062C134.168 34.6241 134.926 43.6439 133.221 53.9659C131.517 64.4773 127.729 73.5445 121.858 81.1676C116.034 88.7434 108.6 94.5909 99.5565 98.7102C90.5603 102.782 80.475 104.818 69.3008 104.818H31.8008L36.9144 74.1364H66.4599C71.1947 74.1364 75.3614 73.3314 78.9599 71.7216C82.5584 70.0644 85.4703 67.7443 87.6957 64.7614C89.921 61.7311 91.3652 58.1326 92.0281 53.9659C92.6909 49.7992 92.3832 46.2481 91.1048 43.3125C89.8737 40.3295 87.743 38.0568 84.7127 36.4943C81.7298 34.8845 77.9182 34.0795 73.2781 34.0795H59.3576L40.3235 148H0.834872ZM284.642 77.8295C281.99 93.6439 276.734 106.902 268.875 117.602C261.015 128.303 251.474 136.376 240.252 141.821C229.031 147.266 217.028 149.989 204.244 149.989C190.608 149.989 178.77 147.029 168.733 141.111C158.695 135.192 151.379 126.527 146.787 115.116C142.194 103.705 141.27 89.7614 144.017 73.2841C146.574 57.4697 151.782 44.1648 159.642 33.3693C167.502 22.5739 177.09 14.4062 188.406 8.86648C199.722 3.3267 211.82 0.556813 224.699 0.556813C238.24 0.556813 250.006 3.53977 259.997 9.50568C270.035 15.4716 277.326 24.2074 281.872 35.7131C286.465 47.2187 287.388 61.2576 284.642 77.8295ZM244.869 73.2841C246.195 64.9508 246.289 57.9432 245.153 52.2614C244.017 46.5322 241.626 42.2235 237.98 39.3352C234.334 36.3996 229.433 34.9318 223.278 34.9318C216.27 34.9318 210.068 36.6364 204.67 40.0455C199.272 43.4545 194.798 48.3551 191.247 54.7472C187.696 61.1392 185.21 68.8333 183.789 77.8295C182.274 86.2576 182.132 93.2651 183.363 98.8523C184.642 104.439 187.151 108.63 190.892 111.423C194.68 114.217 199.604 115.614 205.664 115.614C212.577 115.614 218.685 113.956 223.988 110.642C229.339 107.328 233.766 102.522 237.27 96.2244C240.821 89.9271 243.354 82.2803 244.869 73.2841ZM291.265 148L315.412 2.54545H378.196C388.992 2.54545 398.106 4.51041 405.54 8.44034C412.974 12.3703 418.324 18.0284 421.591 25.4148C424.858 32.8011 425.64 41.6553 423.935 51.9773C422.23 62.3939 418.466 71.1771 412.642 78.3267C406.866 85.429 399.503 90.8267 390.554 94.5199C381.653 98.1657 371.662 99.9886 360.583 99.9886H323.083L328.196 69.3068H357.742C362.382 69.3068 366.454 68.7386 369.958 67.6023C373.462 66.4186 376.302 64.572 378.48 62.0625C380.659 59.5057 382.079 56.1439 382.742 51.9773C383.405 47.8106 383.073 44.4252 381.748 41.821C380.422 39.1695 378.22 37.2282 375.142 35.9972C372.065 34.7187 368.253 34.0795 363.708 34.0795H349.787L330.753 148H291.265ZM387.571 81.2386L412.855 148H369.958L345.526 81.2386H387.571ZM441.584 34.3636L446.982 2.54545H573.402L568.005 34.3636H524.255L505.505 148H466.584L485.334 34.3636H441.584ZM564.116 148L588.264 2.54545H690.537L685.139 34.3636H622.355L618.377 59.3636H674.912L669.514 91.1818H612.98L603.605 148H564.116ZM833.47 77.8295C830.818 93.6439 825.563 106.902 817.703 117.602C809.843 128.303 800.302 136.376 789.081 141.821C777.859 147.266 765.856 149.989 753.072 149.989C739.436 149.989 727.599 147.029 717.561 141.111C707.523 135.192 700.208 126.527 695.615 115.116C691.022 103.705 690.099 89.7614 692.845 73.2841C695.402 57.4697 700.61 44.1648 708.47 33.3693C716.33 22.5739 725.918 14.4062 737.234 8.86648C748.55 3.3267 760.648 0.556813 773.527 0.556813C787.068 0.556813 798.834 3.53977 808.825 9.50568C818.863 15.4716 826.154 24.2074 830.7 35.7131C835.293 47.2187 836.216 61.2576 833.47 77.8295ZM793.697 73.2841C795.023 64.9508 795.118 57.9432 793.981 52.2614C792.845 46.5322 790.454 42.2235 786.808 39.3352C783.162 36.3996 778.261 34.9318 772.106 34.9318C765.099 34.9318 758.896 36.6364 753.498 40.0455C748.1 43.4545 743.626 48.3551 740.075 54.7472C736.524 61.1392 734.038 68.8333 732.618 77.8295C731.102 86.2576 730.96 93.2651 732.191 98.8523C733.47 104.439 735.979 108.63 739.72 111.423C743.508 114.217 748.432 115.614 754.493 115.614C761.405 115.614 767.513 113.956 772.816 110.642C778.167 107.328 782.594 102.522 786.098 96.2244C789.649 89.9271 792.182 82.2803 793.697 73.2841ZM840.093 148L864.24 2.54545H903.729L884.979 116.182H943.786L938.388 148H840.093ZM1017.99 2.54545L993.839 148H954.35L978.498 2.54545H1017.99ZM1165.11 77.8295C1162.46 93.6439 1157.2 106.902 1149.34 117.602C1141.48 128.303 1131.94 136.376 1120.72 141.821C1109.5 147.266 1097.5 149.989 1084.71 149.989C1071.08 149.989 1059.24 147.029 1049.2 141.111C1039.16 135.192 1031.85 126.527 1027.26 115.116C1022.66 103.705 1021.74 89.7614 1024.49 73.2841C1027.04 57.4697 1032.25 44.1648 1040.11 33.3693C1047.97 22.5739 1057.56 14.4062 1068.87 8.86648C1080.19 3.3267 1092.29 0.556813 1105.17 0.556813C1118.71 0.556813 1130.48 3.53977 1140.47 9.50568C1150.5 15.4716 1157.8 24.2074 1162.34 35.7131C1166.93 47.2187 1167.86 61.2576 1165.11 77.8295ZM1125.34 73.2841C1126.66 64.9508 1126.76 57.9432 1125.62 52.2614C1124.49 46.5322 1122.09 42.2235 1118.45 39.3352C1114.8 36.3996 1109.9 34.9318 1103.75 34.9318C1096.74 34.9318 1090.54 36.6364 1085.14 40.0455C1079.74 43.4545 1075.27 48.3551 1071.72 54.7472C1068.16 61.1392 1065.68 68.8333 1064.26 77.8295C1062.74 86.2576 1062.6 93.2651 1063.83 98.8523C1065.11 104.439 1067.62 108.63 1071.36 111.423C1075.15 114.217 1080.07 115.614 1086.13 115.614C1093.05 115.614 1099.15 113.956 1104.46 110.642C1109.81 107.328 1114.23 102.522 1117.74 96.2244C1121.29 89.9271 1123.82 82.2803 1125.34 73.2841Z"/>
</mask>
<path d="M0.834872 148L-3.11112 147.345L-3.88394 152H0.834872V148ZM24.9826 2.54545V-1.45455H21.5919L21.0366 1.89035L24.9826 2.54545ZM115.039 8.9375L113.041 12.4022L113.041 12.4022L115.039 8.9375ZM130.949 26.9062L134.64 25.3662L134.64 25.3662L130.949 26.9062ZM133.221 53.9659L129.275 53.3142L129.273 53.3256L133.221 53.9659ZM121.858 81.1676L118.689 78.7269L118.686 78.7297L121.858 81.1676ZM99.5565 98.7102L101.206 102.354L101.215 102.35L99.5565 98.7102ZM31.8008 104.818L27.8552 104.161L27.0789 108.818H31.8008V104.818ZM36.9144 74.1364V70.1364H33.5259L32.9688 73.4788L36.9144 74.1364ZM78.9599 71.7216L80.5933 75.3729L80.6133 75.3639L80.6331 75.3548L78.9599 71.7216ZM87.6957 64.7614L90.9018 67.1532L90.9108 67.1411L90.9197 67.129L87.6957 64.7614ZM92.0281 53.9659L95.9784 54.5944L95.9784 54.5944L92.0281 53.9659ZM91.1048 43.3125L87.4073 44.8385L87.422 44.8742L87.4374 44.9096L91.1048 43.3125ZM84.7127 36.4943L82.813 40.0144L82.8461 40.0323L82.8796 40.0495L84.7127 36.4943ZM59.3576 34.0795V30.0795H55.9705L55.4123 33.4203L59.3576 34.0795ZM40.3235 148V152H43.7106L44.2688 148.659L40.3235 148ZM4.78086 148.655L28.9286 3.20055L21.0366 1.89035L-3.11112 147.345L4.78086 148.655ZM24.9826 6.54545H87.7667V-1.45455H24.9826V6.54545ZM87.7667 6.54545C98.0441 6.54545 106.403 8.57313 113.041 12.4022L117.038 5.47276C108.903 0.77914 99.0802 -1.45455 87.7667 -1.45455V6.54545ZM113.041 12.4022C119.683 16.2344 124.382 21.5555 127.257 28.4463L134.64 25.3662C131.075 16.8214 125.169 10.1633 117.038 5.47276L113.041 12.4022ZM127.257 28.4463C130.123 35.3172 130.888 43.5474 129.275 53.3142L137.168 54.6176C138.964 43.7405 138.213 33.9309 134.64 25.3662L127.257 28.4463ZM129.273 53.3256C127.663 63.2528 124.113 71.6843 118.689 78.7269L125.027 83.6084C131.345 75.4047 135.37 65.7018 137.17 54.6062L129.273 53.3256ZM118.686 78.7297C113.277 85.766 106.372 91.2106 97.8984 95.0701L101.215 102.35C110.829 97.9712 118.79 91.7207 125.029 83.6055L118.686 78.7297ZM97.907 95.0661C89.4932 98.8745 79.9811 100.818 69.3008 100.818V108.818C80.969 108.818 91.6273 106.69 101.206 102.354L97.907 95.0661ZM69.3008 100.818H31.8008V108.818H69.3008V100.818ZM35.7464 105.476L40.86 74.794L32.9688 73.4788L27.8552 104.161L35.7464 105.476ZM36.9144 78.1364H66.4599V70.1364H36.9144V78.1364ZM66.4599 78.1364C71.6465 78.1364 76.3883 77.254 80.5933 75.3729L77.3264 68.0703C74.3344 69.4088 70.743 70.1364 66.4599 70.1364V78.1364ZM80.6331 75.3548C84.7978 73.4369 88.2513 70.706 90.9018 67.1532L84.4896 62.3695C82.6893 64.7827 80.3189 66.6919 77.2867 68.0884L80.6331 75.3548ZM90.9197 67.129C93.5663 63.5251 95.2278 59.3125 95.9784 54.5944L88.0777 53.3374C87.5026 56.9526 86.2758 59.937 84.4717 62.3937L90.9197 67.129ZM95.9784 54.5944C96.7238 49.9087 96.4379 45.5406 94.7721 41.7154L87.4374 44.9096C88.3285 46.9556 88.658 49.6898 88.0777 53.3374L95.9784 54.5944ZM94.8023 41.7865C93.1882 37.8755 90.3667 34.9092 86.5459 32.9391L82.8796 40.0495C85.1193 41.2044 86.5592 42.7836 87.4073 44.8385L94.8023 41.7865ZM86.6124 32.9742C82.8703 30.9547 78.3484 30.0795 73.2781 30.0795V38.0795C77.488 38.0795 80.5892 38.8143 82.813 40.0144L86.6124 32.9742ZM73.2781 30.0795H59.3576V38.0795H73.2781V30.0795ZM55.4123 33.4203L36.3782 147.341L44.2688 148.659L63.3029 34.7387L55.4123 33.4203ZM40.3235 144H0.834872V152H40.3235V144ZM284.642 77.8295L288.587 78.491L288.588 78.4835L284.642 77.8295ZM268.875 117.602L265.651 115.234L265.651 115.234L268.875 117.602ZM240.252 141.821L241.999 145.42L241.999 145.42L240.252 141.821ZM168.733 141.111L170.764 137.665L170.764 137.665L168.733 141.111ZM146.787 115.116L150.497 113.623L150.497 113.623L146.787 115.116ZM144.017 73.2841L147.962 73.9417L147.964 73.9321L147.965 73.9225L144.017 73.2841ZM159.642 33.3693L156.408 31.0149L156.408 31.0149L159.642 33.3693ZM188.406 8.86648L186.647 5.27386L186.647 5.27386L188.406 8.86648ZM259.997 9.50568L257.946 12.94L257.953 12.9442L259.997 9.50568ZM281.872 35.7131L278.152 37.1828L278.154 37.1894L278.157 37.196L281.872 35.7131ZM244.869 73.2841L248.813 73.9484L248.816 73.9305L248.819 73.9125L244.869 73.2841ZM245.153 52.2614L241.229 53.0396L241.231 53.0458L245.153 52.2614ZM237.98 39.3352L235.471 42.4508L235.483 42.4607L235.496 42.4706L237.98 39.3352ZM204.67 40.0455L202.534 36.6635L202.534 36.6635L204.67 40.0455ZM183.789 77.8295L187.726 78.5373L187.734 78.4954L187.74 78.4534L183.789 77.8295ZM183.363 98.8523L179.457 99.713L179.46 99.7287L179.464 99.7445L183.363 98.8523ZM190.892 111.423L188.498 114.628L188.508 114.635L188.518 114.643L190.892 111.423ZM223.988 110.642L221.882 107.242L221.875 107.246L221.868 107.25L223.988 110.642ZM237.27 96.2244L233.785 94.2597L233.78 94.2696L233.774 94.2796L237.27 96.2244ZM280.697 77.1681C278.128 92.4918 273.071 105.132 265.651 115.234L272.098 119.97C280.398 108.671 285.853 94.796 288.587 78.491L280.697 77.1681ZM265.651 115.234C258.151 125.446 249.105 133.079 238.506 138.222L241.999 145.42C253.843 139.672 263.879 131.16 272.098 119.97L265.651 115.234ZM238.506 138.222C227.843 143.397 216.439 145.989 204.244 145.989V153.989C217.617 153.989 230.219 151.136 241.999 145.42L238.506 138.222ZM204.244 145.989C191.199 145.989 180.089 143.163 170.764 137.665L166.701 144.556C177.452 150.896 190.016 153.989 204.244 153.989V145.989ZM170.764 137.665C161.53 132.22 154.78 124.265 150.497 113.623L143.076 116.61C147.978 128.79 155.86 138.164 166.701 144.556L170.764 137.665ZM150.497 113.623C146.26 103.096 145.295 89.9445 147.962 73.9417L140.071 72.6265C137.246 89.5782 138.127 104.315 143.076 116.61L150.497 113.623ZM147.965 73.9225C150.442 58.6056 155.452 45.9195 162.875 35.7237L156.408 31.0149C148.112 42.41 142.705 56.3338 140.068 72.6457L147.965 73.9225ZM162.875 35.7237C170.375 25.4225 179.469 17.6952 190.165 12.4591L186.647 5.27386C174.711 11.1173 164.628 19.7253 156.408 31.0149L162.875 35.7237ZM190.165 12.4591C200.921 7.19343 212.415 4.55681 224.699 4.55681V-3.44319C211.224 -3.44319 198.523 -0.540034 186.647 5.27386L190.165 12.4591ZM224.699 4.55681C237.638 4.55681 248.671 7.40124 257.946 12.9399L262.048 6.0714C251.342 -0.321706 238.842 -3.44319 224.699 -3.44319V4.55681ZM257.953 12.9442C267.183 18.4296 273.911 26.4485 278.152 37.1828L285.592 34.2434C280.742 21.9663 272.887 12.5136 262.04 6.06715L257.953 12.9442ZM278.157 37.196C282.399 47.8237 283.363 61.0763 280.696 77.1756L288.588 78.4835C291.412 61.4388 290.53 46.6138 285.587 34.2301L278.157 37.196ZM248.819 73.9125C250.189 65.3052 250.337 57.7849 249.075 51.4769L241.231 53.0458C242.242 58.1015 242.201 64.5963 240.919 72.6556L248.819 73.9125ZM249.077 51.4831C247.804 45.0677 245.029 39.8167 240.464 36.1999L235.496 42.4706C238.222 44.6303 240.229 47.9967 241.229 53.0396L249.077 51.4831ZM240.488 36.2197C235.935 32.5533 230.057 30.9318 223.278 30.9318V38.9318C228.81 38.9318 232.733 40.2459 235.471 42.4508L240.488 36.2197ZM223.278 30.9318C215.591 30.9318 208.633 32.8117 202.534 36.6635L206.806 43.4274C211.503 40.4611 216.95 38.9318 223.278 38.9318V30.9318ZM202.534 36.6635C196.492 40.4799 191.579 45.9124 187.75 52.8046L194.743 56.6897C198.017 50.7978 202.053 46.4292 206.806 43.4274L202.534 36.6635ZM187.75 52.8046C183.923 59.6928 181.315 67.8559 179.838 77.2057L187.74 78.4534C189.105 69.8108 191.468 62.5856 194.743 56.6897L187.75 52.8046ZM179.853 77.1218C178.286 85.8356 178.07 93.42 179.457 99.713L187.27 97.9916C186.194 93.1103 186.263 86.6796 187.726 78.5373L179.853 77.1218ZM179.464 99.7445C180.904 106.038 183.835 111.146 188.498 114.628L193.285 108.218C190.467 106.114 188.379 102.841 187.263 97.9601L179.464 99.7445ZM188.518 114.643C193.168 118.072 198.996 119.614 205.664 119.614V111.614C200.212 111.614 196.191 110.361 193.266 108.204L188.518 114.643ZM205.664 119.614C213.245 119.614 220.104 117.787 226.108 114.034L221.868 107.25C217.267 110.126 211.909 111.614 205.664 111.614V119.614ZM226.095 114.042C232.104 110.32 236.978 104.975 240.765 98.1692L233.774 94.2796C230.553 100.069 226.573 104.335 221.882 107.242L226.095 114.042ZM240.754 98.1892C244.583 91.3983 247.241 83.287 248.813 73.9484L240.925 72.6198C239.467 81.2736 237.058 88.4559 233.785 94.2597L240.754 98.1892ZM291.265 148L287.319 147.345L286.546 152H291.265V148ZM315.412 2.54545V-1.45455H312.022L311.466 1.89035L315.412 2.54545ZM421.591 25.4148L425.249 23.7968L425.249 23.7967L421.591 25.4148ZM423.935 51.9773L419.988 51.3255L419.988 51.3313L423.935 51.9773ZM412.642 78.3267L409.541 75.8005L409.539 75.8028L412.642 78.3267ZM390.554 94.5199L392.07 98.2215L392.08 98.2174L390.554 94.5199ZM323.083 99.9886L319.137 99.331L318.361 103.989H323.083V99.9886ZM328.196 69.3068V65.3068H324.808L324.251 68.6492L328.196 69.3068ZM369.958 67.6023L371.192 71.4072L371.215 71.3996L371.238 71.3918L369.958 67.6023ZM378.48 62.0625L381.501 64.6844L381.513 64.6704L381.525 64.6564L378.48 62.0625ZM382.742 51.9773L378.792 51.3488L378.792 51.3488L382.742 51.9773ZM381.748 41.821L378.17 43.6099L378.176 43.6228L378.183 43.6358L381.748 41.821ZM375.142 35.9972L373.608 39.6911L373.632 39.7013L373.657 39.7111L375.142 35.9972ZM349.787 34.0795V30.0795H346.4L345.842 33.4203L349.787 34.0795ZM330.753 148V152H334.14L334.699 148.659L330.753 148ZM387.571 81.2386L391.312 79.8219L390.334 77.2386H387.571V81.2386ZM412.855 148V152H418.648L416.596 146.583L412.855 148ZM369.958 148L366.201 149.375L367.162 152H369.958V148ZM345.526 81.2386V77.2386H339.803L341.77 82.6133L345.526 81.2386ZM295.211 148.655L319.358 3.20055L311.466 1.89035L287.319 147.345L295.211 148.655ZM315.412 6.54545H378.196V-1.45455H315.412V6.54545ZM378.196 6.54545C388.52 6.54545 396.953 8.42544 403.671 11.9766L407.41 4.90409C399.259 0.595385 389.464 -1.45455 378.196 -1.45455V6.54545ZM403.671 11.9766C410.345 15.5049 415.046 20.5044 417.933 27.0328L425.249 23.7967C421.603 15.5524 415.603 9.23561 407.41 4.90409L403.671 11.9766ZM417.933 27.0328C420.804 33.524 421.603 41.5478 419.988 51.3255L427.882 52.629C429.676 41.7628 428.912 32.0782 425.249 23.7968L417.933 27.0328ZM419.988 51.3313C418.379 61.1593 414.863 69.2673 409.541 75.8005L415.744 80.8529C422.07 73.0869 426.082 63.6285 427.883 52.6232L419.988 51.3313ZM409.539 75.8028C404.207 82.3589 397.399 87.368 389.028 90.8224L392.08 98.2174C401.608 94.2854 409.525 88.499 415.746 80.8506L409.539 75.8028ZM389.038 90.8183C380.685 94.2395 371.22 95.9886 360.583 95.9886V103.989C372.104 103.989 382.62 102.092 392.07 98.2214L389.038 90.8183ZM360.583 95.9886H323.083V103.989H360.583V95.9886ZM327.028 100.646L332.142 69.9644L324.251 68.6492L319.137 99.331L327.028 100.646ZM328.196 73.3068H357.742V65.3068H328.196V73.3068ZM357.742 73.3068C362.697 73.3068 367.201 72.7013 371.192 71.4072L368.724 63.7974C365.706 64.7759 362.067 65.3068 357.742 65.3068V73.3068ZM371.238 71.3918C375.337 70.0069 378.806 67.7899 381.501 64.6844L375.46 59.4406C373.799 61.3541 371.586 62.8302 368.677 63.8127L371.238 71.3918ZM381.525 64.6564C384.288 61.4132 385.943 57.3139 386.692 52.6057L378.792 51.3488C378.215 54.9739 377.029 57.5981 375.435 59.4686L381.525 64.6564ZM386.692 52.6057C387.431 47.9604 387.158 43.6315 385.312 40.0063L378.183 43.6358C378.989 45.2189 379.378 47.6608 378.792 51.3488L386.692 52.6057ZM385.325 40.0322C383.509 36.3992 380.5 33.832 376.628 32.2832L373.657 39.7111C375.94 40.6245 377.335 41.9398 378.17 43.6099L385.325 40.0322ZM376.677 32.3032C372.971 30.7636 368.6 30.0795 363.708 30.0795V38.0795C367.906 38.0795 371.159 38.6738 373.608 39.6911L376.677 32.3032ZM363.708 30.0795H349.787V38.0795H363.708V30.0795ZM345.842 33.4203L326.808 147.341L334.699 148.659L353.733 34.7387L345.842 33.4203ZM330.753 144H291.265V152H330.753V144ZM383.831 82.6553L409.115 149.417L416.596 146.583L391.312 79.8219L383.831 82.6553ZM412.855 144H369.958V152H412.855V144ZM373.714 146.625L349.282 79.864L341.77 82.6133L366.201 149.375L373.714 146.625ZM345.526 85.2386H387.571V77.2386H345.526V85.2386ZM441.584 34.3636L437.641 33.6946L436.848 38.3636H441.584V34.3636ZM446.982 2.54545V-1.45455H443.603L443.038 1.87644L446.982 2.54545ZM573.402 2.54545L577.346 3.21446L578.138 -1.45455H573.402V2.54545ZM568.005 34.3636V38.3636H571.383L571.948 35.0327L568.005 34.3636ZM524.255 34.3636V30.3636H520.861L520.308 33.7124L524.255 34.3636ZM505.505 148V152H508.899L509.451 148.651L505.505 148ZM466.584 148L462.638 147.349L461.87 152H466.584V148ZM485.334 34.3636L489.281 35.0148L490.048 30.3636H485.334V34.3636ZM445.528 35.0327L450.926 3.21446L443.038 1.87644L437.641 33.6946L445.528 35.0327ZM446.982 6.54545H573.402V-1.45455H446.982V6.54545ZM569.459 1.87644L564.061 33.6946L571.948 35.0327L577.346 3.21446L569.459 1.87644ZM568.005 30.3636H524.255V38.3636H568.005V30.3636ZM520.308 33.7124L501.558 147.349L509.451 148.651L528.201 35.0148L520.308 33.7124ZM505.505 144H466.584V152H505.505V144ZM470.531 148.651L489.281 35.0148L481.388 33.7124L462.638 147.349L470.531 148.651ZM485.334 30.3636H441.584V38.3636H485.334V30.3636ZM564.116 148L560.17 147.345L559.397 152H564.116V148ZM588.264 2.54545V-1.45455H584.873L584.318 1.89035L588.264 2.54545ZM690.537 2.54545L694.48 3.21446L695.272 -1.45455H690.537V2.54545ZM685.139 34.3636V38.3636H688.517L689.083 35.0327L685.139 34.3636ZM622.355 34.3636V30.3636H618.941L618.404 33.7352L622.355 34.3636ZM618.377 59.3636L614.427 58.7352L613.691 63.3636H618.377V59.3636ZM674.912 59.3636L678.855 60.0326L679.647 55.3636H674.912V59.3636ZM669.514 91.1818V95.1818H672.892L673.458 91.8508L669.514 91.1818ZM612.98 91.1818V87.1818H609.586L609.033 90.5306L612.98 91.1818ZM603.605 148V152H606.999L607.551 148.651L603.605 148ZM568.062 148.655L592.21 3.20055L584.318 1.89035L560.17 147.345L568.062 148.655ZM588.264 6.54545H690.537V-1.45455H588.264V6.54545ZM686.593 1.87644L681.195 33.6946L689.083 35.0327L694.48 3.21446L686.593 1.87644ZM685.139 30.3636H622.355V38.3636H685.139V30.3636ZM618.404 33.7352L614.427 58.7352L622.328 59.9921L626.305 34.9921L618.404 33.7352ZM618.377 63.3636H674.912V55.3636H618.377V63.3636ZM670.968 58.6946L665.57 90.5128L673.458 91.8508L678.855 60.0326L670.968 58.6946ZM669.514 87.1818H612.98V95.1818H669.514V87.1818ZM609.033 90.5306L599.658 147.349L607.551 148.651L616.926 91.833L609.033 90.5306ZM603.605 144H564.116V152H603.605V144ZM833.47 77.8295L837.415 78.491L837.416 78.4835L833.47 77.8295ZM817.703 117.602L814.479 115.234L814.479 115.234L817.703 117.602ZM789.081 141.821L790.827 145.42L790.827 145.42L789.081 141.821ZM717.561 141.111L719.592 137.665L719.592 137.665L717.561 141.111ZM695.615 115.116L699.325 113.623L699.325 113.623L695.615 115.116ZM692.845 73.2841L696.79 73.9417L696.792 73.9321L696.794 73.9225L692.845 73.2841ZM708.47 33.3693L705.236 31.0149L705.236 31.0149L708.47 33.3693ZM737.234 8.86648L735.475 5.27386L735.475 5.27386L737.234 8.86648ZM808.825 9.50568L806.774 12.94L806.781 12.9442L808.825 9.50568ZM830.7 35.7131L826.98 37.1828L826.982 37.1894L826.985 37.196L830.7 35.7131ZM793.697 73.2841L797.642 73.9484L797.645 73.9305L797.647 73.9125L793.697 73.2841ZM793.981 52.2614L790.058 53.0396L790.059 53.0458L793.981 52.2614ZM786.808 39.3352L784.299 42.4508L784.312 42.4607L784.324 42.4706L786.808 39.3352ZM753.498 40.0455L751.362 36.6635L751.362 36.6635L753.498 40.0455ZM732.618 77.8295L736.554 78.5373L736.562 78.4954L736.569 78.4534L732.618 77.8295ZM732.191 98.8523L728.285 99.713L728.289 99.7287L728.292 99.7445L732.191 98.8523ZM739.72 111.423L737.326 114.628L737.336 114.635L737.346 114.643L739.72 111.423ZM772.816 110.642L770.71 107.242L770.703 107.246L770.696 107.25L772.816 110.642ZM786.098 96.2244L782.613 94.2597L782.608 94.2696L782.602 94.2796L786.098 96.2244ZM829.525 77.1681C826.956 92.4918 821.899 105.132 814.479 115.234L820.927 119.97C829.226 108.671 834.681 94.796 837.415 78.491L829.525 77.1681ZM814.479 115.234C806.979 125.446 797.933 133.079 787.334 138.222L790.827 145.42C802.671 139.672 812.707 131.16 820.927 119.97L814.479 115.234ZM787.334 138.222C776.671 143.397 765.267 145.989 753.072 145.989V153.989C766.446 153.989 779.047 151.136 790.827 145.42L787.334 138.222ZM753.072 145.989C740.027 145.989 728.917 143.163 719.592 137.665L715.529 144.556C726.28 150.896 738.844 153.989 753.072 153.989V145.989ZM719.592 137.665C710.358 132.22 703.609 124.265 699.325 113.623L691.904 116.61C696.806 128.79 704.688 138.164 715.529 144.556L719.592 137.665ZM699.325 113.623C695.089 103.096 694.123 89.9445 696.79 73.9417L688.899 72.6265C686.074 89.5782 686.955 104.315 691.904 116.61L699.325 113.623ZM696.794 73.9225C699.27 58.6056 704.28 45.9195 711.704 35.7237L705.236 31.0149C696.94 42.41 691.533 56.3338 688.896 72.6457L696.794 73.9225ZM711.704 35.7237C719.204 25.4225 728.297 17.6952 738.993 12.4591L735.475 5.27386C723.539 11.1173 713.456 19.7253 705.236 31.0149L711.704 35.7237ZM738.993 12.4591C749.749 7.19343 761.244 4.55681 773.527 4.55681V-3.44319C760.052 -3.44319 747.352 -0.540034 735.475 5.27386L738.993 12.4591ZM773.527 4.55681C786.466 4.55681 797.499 7.40124 806.774 12.9399L810.876 6.0714C800.17 -0.321706 787.671 -3.44319 773.527 -3.44319V4.55681ZM806.781 12.9442C816.011 18.4296 822.739 26.4485 826.98 37.1828L834.42 34.2434C829.57 21.9663 821.715 12.5136 810.869 6.06715L806.781 12.9442ZM826.985 37.196C831.227 47.8237 832.192 61.0763 829.524 77.1756L837.416 78.4835C840.241 61.4388 839.358 46.6138 834.415 34.2301L826.985 37.196ZM797.647 73.9125C799.017 65.3052 799.165 57.7849 797.904 51.4769L790.059 53.0458C791.07 58.1015 791.029 64.5963 789.747 72.6556L797.647 73.9125ZM797.905 51.4831C796.632 45.0677 793.857 39.8167 789.292 36.1999L784.324 42.4706C787.05 44.6303 789.057 47.9967 790.058 53.0396L797.905 51.4831ZM789.317 36.2197C784.763 32.5533 778.885 30.9318 772.106 30.9318V38.9318C777.638 38.9318 781.561 40.2459 784.299 42.4508L789.317 36.2197ZM772.106 30.9318C764.419 30.9318 757.461 32.8117 751.362 36.6635L755.634 43.4274C760.331 40.4611 765.778 38.9318 772.106 38.9318V30.9318ZM751.362 36.6635C745.32 40.4799 740.407 45.9124 736.578 52.8046L743.572 56.6897C746.845 50.7978 750.881 46.4292 755.634 43.4274L751.362 36.6635ZM736.578 52.8046C732.751 59.6928 730.143 67.8559 728.666 77.2057L736.569 78.4534C737.933 69.8108 740.296 62.5856 743.572 56.6897L736.578 52.8046ZM728.681 77.1218C727.114 85.8356 726.899 93.42 728.285 99.713L736.098 97.9916C735.022 93.1103 735.091 86.6796 736.554 78.5373L728.681 77.1218ZM728.292 99.7445C729.732 106.038 732.663 111.146 737.326 114.628L742.113 108.218C739.295 106.114 737.207 102.841 736.091 97.9601L728.292 99.7445ZM737.346 114.643C741.996 118.072 747.824 119.614 754.493 119.614V111.614C749.04 111.614 745.019 110.361 742.094 108.204L737.346 114.643ZM754.493 119.614C762.073 119.614 768.932 117.787 774.936 114.034L770.696 107.25C766.095 110.126 760.737 111.614 754.493 111.614V119.614ZM774.923 114.042C780.932 110.32 785.807 104.975 789.593 98.1692L782.602 94.2796C779.381 100.069 775.401 104.335 770.71 107.242L774.923 114.042ZM789.582 98.1892C793.411 91.3983 796.069 83.287 797.642 73.9484L789.753 72.6198C788.295 81.2736 785.886 88.4559 782.613 94.2597L789.582 98.1892ZM840.093 148L836.147 147.345L835.374 152H840.093V148ZM864.24 2.54545V-1.45455H860.85L860.294 1.89035L864.24 2.54545ZM903.729 2.54545L907.676 3.19665L908.443 -1.45455H903.729V2.54545ZM884.979 116.182L881.032 115.531L880.265 120.182H884.979V116.182ZM943.786 116.182L947.73 116.851L948.522 112.182H943.786V116.182ZM938.388 148V152H941.767L942.332 148.669L938.388 148ZM844.039 148.655L868.186 3.20055L860.294 1.89035L836.147 147.345L844.039 148.655ZM864.24 6.54545H903.729V-1.45455H864.24V6.54545ZM899.782 1.89426L881.032 115.531L888.926 116.833L907.676 3.19665L899.782 1.89426ZM884.979 120.182H943.786V112.182H884.979V120.182ZM939.842 115.513L934.444 147.331L942.332 148.669L947.73 116.851L939.842 115.513ZM938.388 144H840.093V152H938.388V144ZM1017.99 2.54545L1021.93 3.20055L1022.71 -1.45455H1017.99V2.54545ZM993.839 148V152H997.23L997.785 148.655L993.839 148ZM954.35 148L950.405 147.345L949.632 152H954.35V148ZM978.498 2.54545V-1.45455H975.108L974.552 1.89035L978.498 2.54545ZM1014.04 1.89035L989.893 147.345L997.785 148.655L1021.93 3.20055L1014.04 1.89035ZM993.839 144H954.35V152H993.839V144ZM958.296 148.655L982.444 3.20055L974.552 1.89035L950.405 147.345L958.296 148.655ZM978.498 6.54545H1017.99V-1.45455H978.498V6.54545ZM1165.11 77.8295L1169.06 78.491L1169.06 78.4835L1165.11 77.8295ZM1149.34 117.602L1146.12 115.234L1146.12 115.234L1149.34 117.602ZM1120.72 141.821L1122.47 145.42L1122.47 145.42L1120.72 141.821ZM1049.2 141.111L1051.23 137.665L1051.23 137.665L1049.2 141.111ZM1027.26 115.116L1030.97 113.623L1030.97 113.623L1027.26 115.116ZM1024.49 73.2841L1028.43 73.9417L1028.43 73.9321L1028.43 73.9225L1024.49 73.2841ZM1040.11 33.3693L1036.88 31.0149L1036.88 31.0149L1040.11 33.3693ZM1068.87 8.86648L1067.12 5.27386L1067.12 5.27386L1068.87 8.86648ZM1140.47 9.50568L1138.41 12.94L1138.42 12.9442L1140.47 9.50568ZM1162.34 35.7131L1158.62 37.1828L1158.62 37.1894L1158.63 37.196L1162.34 35.7131ZM1125.34 73.2841L1129.28 73.9484L1129.29 73.9305L1129.29 73.9125L1125.34 73.2841ZM1125.62 52.2614L1121.7 53.0396L1121.7 53.0458L1125.62 52.2614ZM1118.45 39.3352L1115.94 42.4508L1115.95 42.4607L1115.96 42.4706L1118.45 39.3352ZM1085.14 40.0455L1083 36.6635L1083 36.6635L1085.14 40.0455ZM1064.26 77.8295L1068.2 78.5373L1068.2 78.4954L1068.21 78.4534L1064.26 77.8295ZM1063.83 98.8523L1059.93 99.713L1059.93 99.7287L1059.93 99.7445L1063.83 98.8523ZM1071.36 111.423L1068.97 114.628L1068.98 114.635L1068.99 114.643L1071.36 111.423ZM1104.46 110.642L1102.35 107.242L1102.34 107.246L1102.34 107.25L1104.46 110.642ZM1117.74 96.2244L1114.25 94.2597L1114.25 94.2696L1114.24 94.2796L1117.74 96.2244ZM1161.17 77.1681C1158.6 92.4918 1153.54 105.132 1146.12 115.234L1152.57 119.97C1160.87 108.671 1166.32 94.796 1169.06 78.491L1161.17 77.1681ZM1146.12 115.234C1138.62 125.446 1129.57 133.079 1118.98 138.222L1122.47 145.42C1134.31 139.672 1144.35 131.16 1152.57 119.97L1146.12 115.234ZM1118.98 138.222C1108.31 143.397 1096.91 145.989 1084.71 145.989V153.989C1098.09 153.989 1110.69 151.136 1122.47 145.42L1118.98 138.222ZM1084.71 145.989C1071.67 145.989 1060.56 143.163 1051.23 137.665L1047.17 144.556C1057.92 150.896 1070.48 153.989 1084.71 153.989V145.989ZM1051.23 137.665C1042 132.22 1035.25 124.265 1030.97 113.623L1023.54 116.61C1028.45 128.79 1036.33 138.164 1047.17 144.556L1051.23 137.665ZM1030.97 113.623C1026.73 103.096 1025.76 89.9445 1028.43 73.9417L1020.54 72.6265C1017.71 89.5782 1018.6 104.315 1023.54 116.61L1030.97 113.623ZM1028.43 73.9225C1030.91 58.6056 1035.92 45.9195 1043.34 35.7237L1036.88 31.0149C1028.58 42.41 1023.17 56.3338 1020.54 72.6457L1028.43 73.9225ZM1043.34 35.7237C1050.84 25.4225 1059.94 17.6952 1070.63 12.4591L1067.12 5.27386C1055.18 11.1173 1045.1 19.7253 1036.88 31.0149L1043.34 35.7237ZM1070.63 12.4591C1081.39 7.19343 1092.88 4.55681 1105.17 4.55681V-3.44319C1091.69 -3.44319 1078.99 -0.540034 1067.12 5.27386L1070.63 12.4591ZM1105.17 4.55681C1118.11 4.55681 1129.14 7.40124 1138.41 12.9399L1142.52 6.0714C1131.81 -0.321706 1119.31 -3.44319 1105.17 -3.44319V4.55681ZM1138.42 12.9442C1147.65 18.4296 1154.38 26.4485 1158.62 37.1828L1166.06 34.2434C1161.21 21.9663 1153.36 12.5136 1142.51 6.06715L1138.42 12.9442ZM1158.63 37.196C1162.87 47.8237 1163.83 61.0763 1161.16 77.1756L1169.06 78.4835C1171.88 61.4388 1171 46.6138 1166.06 34.2301L1158.63 37.196ZM1129.29 73.9125C1130.66 65.3052 1130.81 57.7849 1129.54 51.4769L1121.7 53.0458C1122.71 58.1015 1122.67 64.5963 1121.39 72.6556L1129.29 73.9125ZM1129.55 51.4831C1128.27 45.0677 1125.5 39.8167 1120.93 36.1999L1115.96 42.4706C1118.69 44.6303 1120.7 47.9967 1121.7 53.0396L1129.55 51.4831ZM1120.96 36.2197C1116.4 32.5533 1110.53 30.9318 1103.75 30.9318V38.9318C1109.28 38.9318 1113.2 40.2459 1115.94 42.4508L1120.96 36.2197ZM1103.75 30.9318C1096.06 30.9318 1089.1 32.8117 1083 36.6635L1087.27 43.4274C1091.97 40.4611 1097.42 38.9318 1103.75 38.9318V30.9318ZM1083 36.6635C1076.96 40.4799 1072.05 45.9124 1068.22 52.8046L1075.21 56.6897C1078.49 50.7978 1082.52 46.4292 1087.27 43.4274L1083 36.6635ZM1068.22 52.8046C1064.39 59.6928 1061.78 67.8559 1060.31 77.2057L1068.21 78.4534C1069.57 69.8108 1071.94 62.5856 1075.21 56.6897L1068.22 52.8046ZM1060.32 77.1218C1058.75 85.8356 1058.54 93.42 1059.93 99.713L1067.74 97.9916C1066.66 93.1103 1066.73 86.6796 1068.2 78.5373L1060.32 77.1218ZM1059.93 99.7445C1061.37 106.038 1064.3 111.146 1068.97 114.628L1073.75 108.218C1070.94 106.114 1068.85 102.841 1067.73 97.9601L1059.93 99.7445ZM1068.99 114.643C1073.64 118.072 1079.46 119.614 1086.13 119.614V111.614C1080.68 111.614 1076.66 110.361 1073.73 108.204L1068.99 114.643ZM1086.13 119.614C1093.71 119.614 1100.57 117.787 1106.58 114.034L1102.34 107.25C1097.74 110.126 1092.38 111.614 1086.13 111.614V119.614ZM1106.56 114.042C1112.57 110.32 1117.45 104.975 1121.23 98.1692L1114.24 94.2796C1111.02 100.069 1107.04 104.335 1102.35 107.242L1106.56 114.042ZM1121.22 98.1892C1125.05 91.3983 1127.71 83.287 1129.28 73.9484L1121.39 72.6198C1119.94 81.2736 1117.53 88.4559 1114.25 94.2597L1121.22 98.1892Z" fill="#3C7068" mask="url(#path-1-outside-1_36_2)"/>
</svg>
