<svg width="1820" height="242" viewBox="0 0 1820 242" fill="none" xmlns="http://www.w3.org/2000/svg">
<path fill-rule="evenodd" clip-rule="evenodd" d="M279.504 0H211.209L211.235 0.016075L0 242H70.0519L68.8678 241.262L279.504 0Z" fill="#50958B"/>
<path fill-rule="evenodd" clip-rule="evenodd" d="M699.504 0H631.209L631.235 0.016075L420 242H490.052L488.868 241.262L699.504 0Z" fill="#50958B"/>
<path fill-rule="evenodd" clip-rule="evenodd" d="M839.504 0H771.209L771.235 0.016075L560 242H630.052L628.868 241.262L839.504 0Z" fill="#50958B"/>
<path fill-rule="evenodd" clip-rule="evenodd" d="M979.504 0H911.209L911.235 0.016075L700 242H770.052L768.868 241.262L979.504 0Z" fill="#50958B"/>
<path fill-rule="evenodd" clip-rule="evenodd" d="M419.504 0H351.209L351.235 0.016075L140 242H210.052L208.868 241.262L419.504 0Z" fill="#50958B"/>
<path fill-rule="evenodd" clip-rule="evenodd" d="M559.504 0H491.209L491.235 0.016075L280 242H350.052L348.868 241.262L559.504 0Z" fill="#50958B"/>
<path fill-rule="evenodd" clip-rule="evenodd" d="M1119.5 0H1051.21L1051.23 0.016075L840 242H910.052L908.868 241.262L1119.5 0Z" fill="#50958B"/>
<path fill-rule="evenodd" clip-rule="evenodd" d="M1539.5 0H1471.21L1471.23 0.016075L1260 242H1330.05L1328.87 241.262L1539.5 0Z" fill="#50958B"/>
<path fill-rule="evenodd" clip-rule="evenodd" d="M1679.5 0H1611.21L1611.23 0.016075L1400 242H1470.05L1468.87 241.262L1679.5 0Z" fill="#50958B"/>
<path fill-rule="evenodd" clip-rule="evenodd" d="M1819.5 0H1751.21L1751.23 0.016075L1540 242H1610.05L1608.87 241.262L1819.5 0Z" fill="#50958B"/>
<path fill-rule="evenodd" clip-rule="evenodd" d="M1259.5 0H1191.21L1191.23 0.016075L980 242H1050.05L1048.87 241.262L1259.5 0Z" fill="#50958B"/>
<path fill-rule="evenodd" clip-rule="evenodd" d="M1399.5 0H1331.21L1331.23 0.016075L1120 242H1190.05L1188.87 241.262L1399.5 0Z" fill="#50958B"/>
</svg>
